<svg width="184" height="60" viewBox="0 0 184 60" fill="none" xmlns="http://www.w3.org/2000/svg">
<g clip-path="url(#clip0_557_2436)">
<mask id="mask0_557_2436" style="mask-type:luminance" maskUnits="userSpaceOnUse" x="0" y="0" width="184" height="60">
<path d="M184 0H0V60H184V0Z" fill="white"/>
</mask>
<g mask="url(#mask0_557_2436)">
<path d="M15.1476 53.5299H13.9961V59.8934H15.1476V53.5299Z" fill="#F7F1EA"/>
<path d="M21.1162 53.5299V58.1335L18.5245 53.5299H17.1445V59.8965H18.1938V55.0157L20.9719 59.8965H22.1654V53.5299H21.1162Z" fill="#F7F1EA"/>
</g>
<mask id="mask1_557_2436" style="mask-type:luminance" maskUnits="userSpaceOnUse" x="0" y="0" width="184" height="60">
<path d="M184 0H0V60H184V0Z" fill="white"/>
</mask>
<g mask="url(#mask1_557_2436)">
<path d="M26.3006 56.1179C25.2303 55.9474 25.0258 55.6947 25.0258 55.1832C25.0258 54.6717 25.3956 54.3337 26.0962 54.3337C26.7967 54.3337 27.1665 54.6108 27.2897 55.2898H28.339C28.2158 54.0597 27.413 53.4446 26.0962 53.4446C24.7793 53.4446 23.9345 54.2302 23.9345 55.2685C23.9345 56.4559 24.635 56.9218 26.1172 57.1349C27.1244 57.3054 27.413 57.5185 27.413 58.1123C27.413 58.706 26.938 59.0896 26.2405 59.0896C25.1912 59.0896 24.9446 58.5598 24.8605 57.9235H23.748C23.8292 59.1323 24.5508 60.0031 26.2164 60.0031C27.5964 60.0031 28.5014 59.1322 28.5014 58.03C28.5014 56.7573 27.7407 56.3341 26.3006 56.121" fill="#F7F1EA"/>
<path d="M33.9165 57.3054C33.9165 58.6207 33.4625 59.0439 32.5786 59.0439C31.6947 59.0439 31.3038 58.5568 31.3038 57.3906V53.5299H30.1523V57.4759C30.1523 59.1109 31.0363 59.9787 32.5816 59.9787C34.2082 60 35.071 59.0652 35.071 57.4119V53.5299H33.9195V57.3054H33.9165Z" fill="#F7F1EA"/>
<path d="M41.3885 55.4389V55.3963C41.3885 54.1023 40.4414 53.5299 39.0825 53.5299H37.002V59.8934H38.1535V57.3267H38.8931L40.4986 59.8934H41.7342L40.0055 57.1562C40.7661 56.9431 41.3855 56.4346 41.3855 55.4389M39.0825 56.5016L38.1565 56.4802V54.4646H39.0825C39.8221 54.4646 40.255 54.7204 40.255 55.442V55.4846C40.255 56.1636 39.8431 56.5046 39.0825 56.5046" fill="#F7F1EA"/>
<path d="M45.0321 53.5299L42.9727 59.8934H44.043L44.515 58.3223H46.8812L47.3742 59.8934H48.5678L46.5294 53.5299H45.0261H45.0321ZM44.8036 57.4546L45.7297 54.4829L46.6346 57.4546H44.8036Z" fill="#F7F1EA"/>
<path d="M54.0673 58.1336L51.4517 53.5299H50.0957V59.8965H51.1239V55.0157L53.923 59.8965H55.1166V53.5299H54.0673V58.1336Z" fill="#F7F1EA"/>
<path d="M59.8477 59.0257C58.7143 59.0257 58.0378 58.1762 58.0378 56.733V56.669C58.0378 55.2471 58.7594 54.3763 59.8297 54.3763C60.7136 54.3763 61.1676 54.8209 61.3119 55.6491H62.4845C62.3402 54.1419 61.2488 53.4203 59.8297 53.4203C58.1009 53.4203 56.8262 54.7569 56.8262 56.666V56.7299C56.8262 58.6816 57.8965 59.9543 59.8508 59.9543C61.3119 59.9543 62.3823 59.1688 62.5687 57.6403H61.4562C61.3119 58.5751 60.6956 59.0196 59.8508 59.0196" fill="#F7F1EA"/>
<path d="M65.4679 57.1166H67.6296V56.2245H65.4679V54.4646H68.1648V53.5299H64.3164V59.8965H68.3301V58.9617H65.4679V57.1166Z" fill="#F7F1EA"/>
<path d="M53.0169 4.0952C54.4992 4.0952 55.8371 3.62935 55.8371 3.01431C55.8371 2.82249 55.5695 2.90774 55.4462 2.95037C54.9742 3.07825 53.8197 3.41621 52.605 3.14219C52.4818 3.39795 52.2352 3.69329 51.5137 3.86379C51.9887 4.01299 52.5028 4.09824 53.0169 4.09824" fill="#F7F1EA"/>
<path d="M59.3769 13.8963C58.9439 13.473 58.511 13.0681 58.06 12.6875H50.8984C51.3524 13.0681 51.8034 13.473 52.2153 13.8963H59.3769Z" fill="#F7F1EA"/>
<path d="M31.5934 5.81244C31.1394 6.02557 30.6463 6.13214 30.1532 6.13214C29.597 6.11083 29.0408 6.0682 28.4846 5.96163C28.3824 5.96163 28.3613 6.00426 28.3613 6.0682C28.3613 6.36659 29.1851 7.02425 30.7064 7.02425C31.4881 7.02425 32.1676 6.85375 32.6817 6.47315C32.2909 6.3879 31.7978 6.13518 31.5903 5.81548" fill="#F7F1EA"/>
<path d="M56.2274 4.13782C58.3049 4.13782 60.0337 3.09956 60.0337 2.48452C60.0337 2.39926 59.9736 2.31401 59.8894 2.31401H59.8262C59.3542 2.42058 58.5094 3.09956 56.3477 3.09956C56.2845 3.56541 55.9989 3.84248 55.2773 4.07388C55.6081 4.11651 55.9147 4.13782 56.2244 4.13782" fill="#F7F1EA"/>
<path d="M56.9053 11.8167C56.31 11.3722 55.6696 10.9885 55.0112 10.6292H47.582C48.3216 10.9703 49.0222 11.3722 49.7016 11.8167H56.9053Z" fill="#F7F1EA"/>
<path d="M35.2118 2.27139C36.1589 2.27139 36.9195 3.05694 36.9406 4.03126V4.05257C36.9406 4.73155 36.5707 5.26134 36.0145 5.64498C36.0777 5.73024 36.1589 5.79417 36.219 5.87943C36.3212 6.00731 36.4234 6.11387 36.5287 6.2174C36.694 6.3879 36.8594 6.55841 37.0428 6.68324L37.166 6.78981C37.3524 6.91769 37.5358 7.04557 37.7433 7.14909C37.8245 7.19172 37.9297 7.23435 38.0109 7.27697C38.0921 7.3196 38.2153 7.36223 38.3206 7.38354C38.525 7.44748 38.7535 7.46879 38.979 7.49011C39.0391 7.49011 39.0812 7.51142 39.1443 7.51142V8.61362C39.1443 9.48442 39.9892 9.95027 40.9753 9.95027C41.9615 9.95027 42.8063 9.48442 42.8063 8.61362V7.49011C42.8694 7.49011 42.9085 7.49011 42.9717 7.46879C43.1972 7.44748 43.4046 7.40485 43.6301 7.36223C43.7323 7.34091 43.8345 7.29829 43.9398 7.25566C44.042 7.21303 44.1262 7.17041 44.2073 7.12778C44.4118 7.02121 44.5982 6.91465 44.7846 6.7685L44.9079 6.66193C45.0913 6.51274 45.2566 6.36354 45.422 6.19608C45.5242 6.08952 45.6264 5.98295 45.7317 5.85507C45.7948 5.76982 45.876 5.70588 45.9361 5.62062C45.4009 5.24003 45.0101 4.7072 45.0101 4.02821C44.989 3.05085 45.7497 2.24703 46.6968 2.24703H46.7178C47.1718 2.26834 47.6228 2.43885 47.9926 2.71288C48.1369 2.49975 48.2602 2.28966 48.4045 2.07653C47.9114 1.71724 47.3341 1.52542 46.7389 1.50411C45.3799 1.4828 44.2705 2.60631 44.2494 3.98559V4.02821C44.2705 4.66457 44.517 5.27961 44.9289 5.74546C44.4749 6.21131 43.7955 6.84766 42.7672 6.82635V1.33665C42.7672 0.465848 41.9224 0 40.9332 0C39.9441 0 39.1023 0.465848 39.1023 1.33665V6.83244C38.074 6.85375 37.3945 6.2174 36.9406 5.75155C37.3735 5.2857 37.599 4.67066 37.62 4.0343C37.62 2.63372 36.5287 1.5102 35.1697 1.5102H35.1276C34.5293 1.53151 33.9551 1.72333 33.459 2.08261C33.6033 2.29575 33.7266 2.50584 33.8709 2.71897C34.3249 2.46321 34.7548 2.29575 35.2088 2.27443M40.9753 0.593728C41.3662 0.572415 41.736 0.678981 42.0457 0.931696L40.9753 1.99127L39.905 0.931696C40.2117 0.675936 40.5845 0.572415 40.9753 0.593728ZM39.7006 1.40059L40.9753 2.65198L42.2501 1.37928V2.2927L40.9753 3.56541L39.7006 2.2927V1.40059ZM39.7006 2.97168L40.9753 4.24439L42.2501 2.97168V3.88511L40.9753 5.15782L39.7006 3.88511V2.97168ZM39.7006 4.53973L40.9753 5.81244L42.2501 4.53973V5.45316L40.9753 6.72587L39.7006 5.45316V4.53973ZM39.7006 6.11083L40.9753 7.38354L42.2501 6.11083V7.02426L40.9753 8.29697L39.7006 7.02426V6.11083ZM39.7006 7.68192L40.9753 8.95463L42.2501 7.68192V8.57404C42.2501 9.08251 41.736 9.3809 40.9753 9.3809C40.2147 9.3809 39.7006 9.0612 39.7006 8.57404V7.68192Z" fill="#F7F1EA"/>
<path d="M48.4053 3.0752C48.9826 3.41317 49.641 3.56236 50.2995 3.54105C51.1022 3.54105 52.1094 3.3066 52.1094 2.94732C52.1094 2.77682 51.8208 2.81944 51.2646 2.84076C50.4408 2.9047 49.617 2.73419 48.8774 2.37491C48.712 2.56673 48.5677 2.81944 48.4023 3.0752H48.4053Z" fill="#F7F1EA"/>
<path d="M35.2546 5.49579C35.0892 5.28266 34.9239 5.05125 34.6984 4.75287C34.082 5.15478 33.5258 5.38922 32.3112 5.3466C32.0857 5.3466 31.9805 5.3466 31.9805 5.47448C31.9805 5.6663 32.6599 6.08952 33.5048 6.08952C34.1211 6.0682 34.7405 5.87638 35.2546 5.49579Z" fill="#F7F1EA"/>
<path d="M45.73 4.00995C45.709 4.03126 45.709 4.05257 45.709 4.07389C45.73 4.51842 45.9555 4.90206 46.3253 5.11215C46.4486 4.92033 46.614 4.73156 46.7793 4.49711C46.4486 4.30529 46.3043 4.00995 46.5117 3.7755C46.7162 3.54106 46.9657 3.62631 47.2513 3.86076C47.3746 3.66894 47.5189 3.48016 47.6632 3.26703C47.4377 3.07521 47.1491 2.94733 46.8394 2.94733C46.2411 2.92601 45.7481 3.39186 45.727 4.0069" fill="#F7F1EA"/>
<path d="M55.3835 8.08383C54.5808 8.21171 53.757 8.14777 52.9753 7.8707C52.7498 8.29392 52.3589 8.52836 51.8418 8.67756C52.398 8.89069 52.9933 8.99726 53.5916 8.99726C54.8664 8.99726 55.7112 8.53141 55.7112 8.23302C55.7112 8.12646 55.609 8.0412 55.3805 8.08383" fill="#F7F1EA"/>
<path d="M49.6407 5.32528C48.426 5.38922 47.8698 5.13346 47.2535 4.73155C47.049 5.02994 46.8626 5.28265 46.6973 5.47447C47.2114 5.85811 47.8097 6.04689 48.4471 6.0682C49.2919 6.0682 49.9714 5.64498 49.9714 5.45316C49.9714 5.32528 49.8692 5.32528 49.6407 5.32528Z" fill="#F7F1EA"/>
<path d="M50.3206 8.42179C51.6374 8.42179 52.3379 7.892 52.3379 7.65755C52.3379 7.55099 52.2748 7.52967 52.1726 7.52967C52.0072 7.52967 51.433 7.59361 51.0391 7.59361C50.4017 7.59361 49.7644 7.44442 49.1871 7.14908C48.8383 7.55099 48.5497 7.63624 48.0566 7.72149C48.7361 8.16603 49.5178 8.42179 50.3206 8.42179Z" fill="#F7F1EA"/>
<path d="M53.4471 5.96163C52.8909 6.0682 52.3347 6.11083 51.7815 6.13214C51.2884 6.13214 50.7924 6.02557 50.3414 5.81244C50.1369 6.13214 49.6408 6.36354 49.25 6.47011C49.7641 6.87201 50.4646 7.02121 51.2253 7.02121C52.7496 7.02121 53.5704 6.36354 53.5704 6.06515C53.5704 6.00121 53.5283 5.95859 53.4471 5.95859" fill="#F7F1EA"/>
<path d="M43.7539 7.91332C44.0846 8.5923 44.5777 9.05814 45.2782 9.1434C45.6691 9.18602 46.0178 9.01552 46.0178 8.84501C46.0178 8.73844 45.7082 8.69582 45.5248 8.61057C45.0708 8.39743 44.701 8.05946 44.4755 7.61493C44.25 7.74281 44.0034 7.82806 43.7539 7.91332Z" fill="#F7F1EA"/>
<path d="M53.9822 15.9972H61.2069C60.8973 15.5739 60.5485 15.169 60.1967 14.7884H53.0352C53.3659 15.169 53.6725 15.5739 53.9822 15.9972Z" fill="#F7F1EA"/>
<path d="M45.5035 6.91769C45.3171 7.0882 45.1126 7.25566 44.9082 7.38354C45.2179 7.8707 45.6689 8.21172 46.204 8.3396C46.8835 8.46748 47.3555 8.08384 47.3555 7.89506C47.3555 7.7885 47.1511 7.7885 46.9857 7.76718C46.3904 7.70324 45.8523 7.38659 45.5035 6.91769Z" fill="#F7F1EA"/>
<path d="M57.4829 6.47011C57.4829 6.38486 57.4228 6.29961 57.3386 6.29961H57.3176C56.9267 6.29961 56.578 6.59799 55.3633 6.59799C54.9304 6.57668 54.5185 6.51274 54.1066 6.38486C53.9412 6.85071 53.4482 7.14909 52.9551 7.29829C53.5323 7.46879 54.1276 7.55405 54.7259 7.55405C56.3735 7.55405 57.4829 6.87507 57.4829 6.47316" fill="#F7F1EA"/>
<path d="M50.6697 4.00994C49.5784 4.07388 48.9199 3.946 48.0962 3.50146C47.9308 3.75722 47.7474 4.00994 47.582 4.24439C48.1382 4.62803 48.7967 4.83811 49.4551 4.8168C50.2999 4.8168 51.1027 4.45752 51.1027 4.18045C51.1448 4.05257 50.9584 3.98863 50.6697 4.00994Z" fill="#F7F1EA"/>
<path d="M27.847 6.3879C27.4351 6.51578 27.0022 6.57972 26.5903 6.60103C25.3546 6.60103 25.0059 6.30264 24.6361 6.30264C24.5549 6.30264 24.4707 6.36658 24.4707 6.45184V6.47315C24.4707 6.87506 25.5831 7.55404 27.2277 7.55404C27.823 7.55404 28.4213 7.46878 28.9985 7.29828C28.5055 7.14908 28.0094 6.85374 27.847 6.38485" fill="#F7F1EA"/>
<path d="M47.5011 7.27697C48.2828 7.27697 48.839 6.91768 48.839 6.72586C48.839 6.59799 48.7157 6.59798 48.5293 6.6193C47.7476 6.68324 46.987 6.4701 46.3466 6.00426L46.2865 6.08951C46.1421 6.26002 45.9978 6.43052 45.8535 6.57667C46.3466 6.99989 46.8607 7.27697 47.5011 7.27697Z" fill="#F7F1EA"/>
<path d="M46.8418 8.76281C47.5634 9.22866 48.3842 9.50573 49.229 9.52705C50.134 9.54836 50.6691 9.22866 50.6691 9.01857C50.6691 8.89069 50.3204 8.95463 49.8062 8.91201C49.0847 8.86938 48.3872 8.61667 47.7889 8.1904C47.5844 8.53141 47.2326 8.7415 46.8418 8.76281Z" fill="#F7F1EA"/>
<path d="M54.5174 4.43317C53.9402 4.56105 53.3659 4.6463 52.7676 4.66761C52.3557 4.66761 51.9649 4.60367 51.574 4.49711C51.4087 4.79549 50.9968 5.06952 50.3594 5.1974C50.8735 5.45316 51.4507 5.578 52.028 5.578C53.426 5.578 54.7459 5.11215 54.7459 4.60063C54.7459 4.49406 54.7038 4.40881 54.5204 4.43012" fill="#F7F1EA"/>
<path d="M58.7772 4.28702C57.7069 4.75287 56.5343 4.92338 55.3618 4.77418C55.2986 5.1974 54.7635 5.62367 54.0449 5.76982C54.559 5.85507 55.0521 5.8977 55.5692 5.8977C57.4634 5.8977 59.0057 5.06952 59.0057 4.43317C59.0057 4.3266 58.9636 4.24135 58.7802 4.28398" fill="#F7F1EA"/>
<path d="M21.26 36.9816H28.5869C28.3193 36.5797 28.0518 36.1534 27.8263 35.7302H20.6016C20.806 36.1534 21.0135 36.5797 21.26 36.9816Z" fill="#F7F1EA"/>
<path d="M24.0371 40.5653C24.4911 41.0098 24.9421 41.4361 25.4351 41.8167H33.174C32.6178 41.4361 32.1247 41.0098 31.6316 40.5653H24.0371Z" fill="#F7F1EA"/>
<path d="M46.7402 46.3169C47.8917 46.0824 49.0252 45.7658 50.1376 45.3608H31.8398C32.9523 45.7627 34.0827 46.0824 35.2372 46.3169C39.0435 47.0598 42.934 47.0598 46.7432 46.3169" fill="#F7F1EA"/>
<path d="M35.0084 42.9646H27.002C27.7025 43.4304 28.421 43.8354 29.1637 44.216H38.2795C37.128 43.9602 36.0366 43.537 35.0084 42.9646Z" fill="#F7F1EA"/>
<path d="M29.4311 38.1478H22.002C22.3116 38.571 22.6183 38.9973 22.9701 39.3992H30.4834C30.1136 38.9973 29.7618 38.5923 29.4341 38.1478" fill="#F7F1EA"/>
<path d="M28.3394 8.99726C28.9377 8.99726 29.533 8.89069 30.0892 8.67756C29.5751 8.52836 29.1842 8.31828 28.9558 7.8707C28.1741 8.14777 27.3713 8.20866 26.5475 8.08383C26.322 8.0412 26.2168 8.12646 26.2168 8.23302C26.2378 8.53141 27.0616 8.99726 28.3364 8.99726" fill="#F7F1EA"/>
<path d="M28.9168 14.7884H21.7552C21.4065 15.169 21.0758 15.5739 20.748 15.9972H27.9728C28.2824 15.5739 28.5891 15.169 28.9198 14.7884" fill="#F7F1EA"/>
<path d="M18.7217 33.5441V18.2259C18.7007 17.7174 18.5774 17.5469 18.0422 17.5469H15.9016C15.3875 17.5469 15.2221 17.7174 15.2221 18.2259V26.9248L7.01725 17.9488C6.74967 17.6505 6.60536 17.5469 6.11229 17.5469H0.679477C0.207451 17.5469 0 17.7814 0 18.2259V33.5441C0 33.9886 0.22549 34.2231 0.679477 34.2231H2.84118C3.3132 34.2231 3.49961 33.9886 3.49961 33.5441V23.6578L12.5703 33.7146C12.859 34.0556 13.0033 34.2231 13.6407 34.2231H18.0663C18.5804 34.2231 18.7247 34.0526 18.7247 33.5441" fill="#F7F1EA"/>
<path d="M43.6934 44.2373H52.8122C53.5518 43.8567 54.2734 43.4517 54.9739 42.9859H46.9675C45.9182 43.537 44.8268 43.9602 43.6964 44.2373" fill="#F7F1EA"/>
<path d="M61.3506 35.7302H54.1259C53.9004 36.1534 53.6328 36.5797 53.3652 36.9816H60.6922C60.9387 36.5797 61.1461 36.1534 61.3506 35.7302Z" fill="#F7F1EA"/>
<path d="M25.7062 4.13782C26.0159 4.13782 26.3436 4.11651 26.6533 4.0952C25.9347 3.86075 25.6461 3.58672 25.5829 3.12087C23.4212 3.12087 22.5794 2.42058 22.1044 2.33533C22.0232 2.31401 21.939 2.35664 21.918 2.44189V2.50583C21.918 3.07825 23.6467 4.14087 25.7062 4.14087" fill="#F7F1EA"/>
<path d="M76.6224 18.0767C76.5413 17.7357 76.2316 17.5043 75.8828 17.547H69.3587C68.9468 17.547 68.6792 17.6748 68.5559 18.0767L63.1021 33.6294C62.9788 34.0313 63.081 34.2231 63.4719 34.2231H65.9011C66.313 34.2231 66.4784 34.1805 66.6407 33.7146L67.669 30.7642H74.112L75.0801 33.3949C75.3477 34.1165 75.5341 34.2231 76.1083 34.2231H81.7065C82.3018 34.2231 82.4461 34.0313 82.2206 33.3736L76.6224 18.0767ZM68.7213 27.8352L70.8619 21.7244L73.0838 27.8352H68.7213Z" fill="#F7F1EA"/>
<path d="M53.923 18.2472L50.6909 26.3524L47.3567 18.2472C47.1522 17.7388 46.9658 17.5469 46.3284 17.5469H39.9275C39.4134 17.5469 39.248 17.7174 39.248 18.2259V33.5441C39.248 34.0526 39.4134 34.2231 39.9275 34.2231H42.0682C42.5823 34.2231 42.7477 34.0526 42.7477 33.5441V23.6578L46.8636 33.5228C47.1522 34.1378 47.2545 34.2231 47.7084 34.2231H50.5887C51.184 34.2231 51.3283 34.0952 51.5568 33.5654L55.4683 23.7004V33.5654C55.4683 34.0739 55.6337 34.2444 56.1478 34.2444H61.7249C62.239 34.2444 62.3413 34.0739 62.3413 33.5654V18.2259C62.3413 17.7174 62.1969 17.5469 61.6828 17.5469H54.87C54.2537 17.5469 54.1304 17.7814 53.923 18.2472Z" fill="#F7F1EA"/>
<path d="M51.4727 39.3992H58.986C59.3348 38.9973 59.6444 38.571 59.9541 38.1478H52.5249C52.1942 38.5923 51.8455 38.9973 51.4757 39.3992" fill="#F7F1EA"/>
<path d="M50.3412 40.5653C49.8481 41.0098 49.331 41.4361 48.7988 41.8167H56.5377C57.0307 41.4148 57.4847 41.0098 57.9357 40.5653H50.3412Z" fill="#F7F1EA"/>
<path d="M20.4169 34.2231H25.9729C26.445 34.2018 26.6103 34.0312 26.6103 33.5441V26.2245L31.1382 33.6293C31.4478 34.1165 31.5922 34.2231 32.1063 34.2231H37.9089C38.402 34.2231 38.5252 33.8394 38.2576 33.3949L33.9763 26.5198C36.3004 25.8622 38.0923 24.6534 38.0923 21.8522C38.0923 19.2215 36.2823 17.5439 33.6877 17.5439H20.4139C19.8997 17.5439 19.7344 17.7144 19.7344 18.2229V33.541C19.7344 34.0495 19.8997 34.22 20.4139 34.22M26.6103 19.6052H28.772C30.3144 19.6052 31.3246 20.476 31.3246 22.3424C31.3246 24.2089 30.3174 25.037 28.772 25.037H26.6103V19.6052Z" fill="#F7F1EA"/>
<path d="M31.2626 4.00994C30.974 3.98863 30.8086 4.05257 30.8086 4.18045C30.8086 4.45752 31.6324 4.8168 32.4562 4.8168C33.1357 4.83811 33.7941 4.64629 34.3292 4.24439C34.1639 4.00994 33.9985 3.75722 33.8151 3.50146C33.0334 3.946 32.375 4.07388 31.2626 4.00994Z" fill="#F7F1EA"/>
<path d="M30.3564 4.49711C29.9655 4.60368 29.5747 4.66762 29.1628 4.66762C28.5645 4.64631 27.9902 4.56105 27.413 4.43317C27.2266 4.41186 27.1875 4.49711 27.1875 4.60368C27.1875 5.11215 28.5044 5.578 29.9054 5.578C30.4827 5.578 31.0389 5.45012 31.571 5.19741C30.9336 5.06953 30.5217 4.7955 30.3564 4.49711Z" fill="#F7F1EA"/>
<path d="M35.194 2.95036H35.1129C34.8032 2.97168 34.5146 3.07824 34.2891 3.27006C34.4334 3.4832 34.5566 3.67197 34.701 3.86379C34.9685 3.62934 35.2572 3.54409 35.4406 3.77854C35.627 4.01298 35.4827 4.30833 35.173 4.50014C35.3383 4.73459 35.4827 4.94468 35.627 5.11519C35.9968 4.90205 36.2253 4.50014 36.2433 4.07388C36.2644 3.45884 35.7893 2.95036 35.194 2.95036Z" fill="#F7F1EA"/>
<path d="M36.1214 6.55537C35.9771 6.40618 35.8328 6.23567 35.6885 6.06821L35.6253 5.98296C34.9879 6.4488 34.2273 6.68325 33.4426 6.598C33.2562 6.57668 33.1119 6.57668 33.1329 6.70456C33.1329 6.9177 33.6891 7.25566 34.4708 7.25566C35.0871 7.27698 35.6013 6.99991 36.1184 6.55537" fill="#F7F1EA"/>
<path d="M28.9373 4.0952C29.4514 4.0952 29.9656 4.00995 30.4406 3.83944C29.701 3.66893 29.4514 3.37359 29.3492 3.11783C28.1346 3.39491 26.9831 3.05389 26.508 2.92601C26.3848 2.88339 26.1172 2.79813 26.1172 2.98995C26.1172 3.62631 27.4551 4.09216 28.9373 4.09216" fill="#F7F1EA"/>
<path d="M33.8742 7.72454C33.3811 7.63929 33.0925 7.55404 32.7407 7.15213C32.1634 7.45052 31.5261 7.59667 30.8887 7.59667C30.4978 7.61798 29.9206 7.53272 29.7552 7.53272C29.653 7.53272 29.5898 7.55404 29.5898 7.6606C29.5898 7.89505 30.2693 8.42484 31.6072 8.42484C32.41 8.42484 33.1917 8.16908 33.8712 7.72454" fill="#F7F1EA"/>
<path d="M26.5901 4.77417C25.4386 4.92337 24.245 4.75286 23.1747 4.28701C22.9883 4.24439 22.9492 4.32964 22.9492 4.43621C22.9492 5.07256 24.4916 5.90073 26.3646 5.90073C26.8788 5.90073 27.3929 5.85811 27.889 5.77285C27.1884 5.60235 26.6533 5.20044 26.5931 4.77722" fill="#F7F1EA"/>
<path d="M36.6741 9.1221C37.3746 9.03684 37.8466 8.571 38.1984 7.89201C37.9518 7.82807 37.7053 7.72151 37.4768 7.59363C37.2513 8.03816 36.8785 8.37918 36.4275 8.56795C36.2411 8.67452 35.9345 8.71714 35.9345 8.8024C35.9134 8.99422 36.2832 9.16472 36.6741 9.1221Z" fill="#F7F1EA"/>
<path d="M31.6537 3.52278C32.3121 3.56541 32.9706 3.3949 33.5478 3.05693C33.3824 2.82249 33.2381 2.56977 33.0758 2.33533C32.3362 2.71592 31.5124 2.88643 30.6886 2.80118C30.1324 2.77986 29.8438 2.75855 29.8438 2.90774C29.8438 3.29138 30.8509 3.52278 31.6537 3.52278Z" fill="#F7F1EA"/>
<path d="M35.7296 8.3396C36.2648 8.1904 36.7188 7.85244 37.0254 7.38354C36.821 7.23435 36.6136 7.08516 36.4302 6.91769C36.0814 7.40486 35.5252 7.72456 34.9479 7.76718C34.7826 7.7885 34.5781 7.7885 34.5781 7.89506C34.5781 8.08688 35.0712 8.46748 35.7296 8.3396Z" fill="#F7F1EA"/>
<path d="M29.7401 13.8963C30.152 13.473 30.603 13.0681 31.057 12.6875H23.9165C23.4625 13.0681 23.0326 13.473 22.5996 13.8963H29.7401Z" fill="#F7F1EA"/>
<path d="M34.1626 8.2117C33.5673 8.63492 32.8667 8.86937 32.1452 8.93331C31.6311 8.97593 31.2793 8.912 31.2793 9.03987C31.2793 9.25301 31.8145 9.54835 32.7405 9.54835C33.5853 9.52704 34.4061 9.24996 35.1277 8.78412C34.7158 8.7628 34.367 8.54967 34.1596 8.2117" fill="#F7F1EA"/>
<path d="M34.3506 10.6079H26.9215C26.263 10.9672 25.6467 11.3722 25.0273 11.7954H32.231C32.9105 11.3509 33.629 10.9459 34.3506 10.6079Z" fill="#F7F1EA"/>
<path d="M173.329 44.0759L171.095 38.0899H169.096L172.415 46.4752L171.128 49.8549H173.025L177.511 38.0899H175.614L173.329 44.0759Z" fill="#F7F1EA"/>
<path d="M123.229 24.1967H128.818V29.5829H130.815V17.5743H128.818V22.4307H123.229V17.5743H121.248V29.5829H123.229V24.1967Z" fill="#F7F1EA"/>
<path d="M136.424 20.7987C133.715 20.7987 132.26 22.927 132.26 25.2593C132.26 27.5916 133.799 29.7199 136.511 29.7199C138.507 29.7199 139.966 28.7608 140.423 27.0953L138.679 26.6508C138.459 27.5946 137.663 28.1275 136.544 28.1275C135.188 28.1275 134.241 27.2019 134.073 25.7099H140.591C140.609 25.5547 140.624 25.1954 140.624 24.9396C140.624 22.8296 139.169 20.8048 136.424 20.8048M134.154 24.2819C134.424 22.994 135.254 22.2754 136.424 22.2754C137.78 22.2754 138.54 23.1158 138.658 24.2819H134.154Z" fill="#F7F1EA"/>
<path d="M143.91 17.4373H142.064V29.5798H143.91V17.4373Z" fill="#F7F1EA"/>
<path d="M147.497 28.5872C148.024 29.2723 149.022 29.7199 150.053 29.7199C152.609 29.7199 154.166 27.8687 154.166 25.2593C154.166 22.65 152.675 20.7987 150.152 20.7987C148.968 20.7987 147.969 21.3316 147.494 22.0349V20.9358H145.648V32.7007H147.494V28.5842L147.497 28.5872ZM149.852 22.4307C151.343 22.4307 152.323 23.5451 152.323 25.2593C152.323 26.9735 151.34 28.0909 149.852 28.0909C148.363 28.0909 147.38 26.9583 147.38 25.2593C147.38 23.5603 148.363 22.4307 149.852 22.4307Z" fill="#F7F1EA"/>
<path d="M111.29 36.3392C112.932 36.3392 114.135 37.3166 114.474 38.9303L116.438 38.501C116.014 36.1169 114.032 34.5915 111.29 34.5915C108.26 34.5915 105.467 36.6315 105.467 40.7328C105.467 44.8341 108.227 46.874 111.29 46.874C113.948 46.874 115.845 45.4339 116.42 43.1168L114.438 42.6875C114.065 44.1977 112.947 45.105 111.29 45.105C109.108 45.105 107.481 43.5796 107.481 40.7328C107.481 37.8859 109.123 36.3422 111.29 36.3422" fill="#F7F1EA"/>
<path d="M121.948 37.9529C119.375 37.9529 117.547 39.8224 117.547 42.4135C117.547 45.0046 119.375 46.8741 121.948 46.8741C124.522 46.8741 126.35 45.0046 126.35 42.4135C126.35 39.8224 124.504 37.9529 121.948 37.9529ZM121.948 45.2421C120.424 45.2421 119.408 44.0759 119.408 42.4135C119.408 40.751 120.424 39.5819 121.948 39.5819C123.473 39.5819 124.489 40.748 124.489 42.4135C124.489 44.079 123.458 45.2421 121.948 45.2421Z" fill="#F7F1EA"/>
<path d="M137.278 37.9529C135.94 37.9529 134.924 38.7263 134.467 39.6671C134.112 38.5527 133.129 37.9529 131.758 37.9529C130.522 37.9529 129.707 38.6045 129.25 39.5484V38.0899H127.404V46.734H129.25V42.3617C129.25 40.7145 129.978 39.5666 131.25 39.5666C132.332 39.5666 132.927 40.2882 132.927 41.3691V46.737H134.755V42.3648C134.755 40.7023 135.483 39.5697 136.755 39.5697C137.837 39.5697 138.447 40.2913 138.447 41.3722V46.7401H140.293V40.9094C140.293 39.1586 139.109 37.959 137.281 37.959" fill="#F7F1EA"/>
<path d="M146.439 37.9529C145.255 37.9529 144.257 38.4857 143.782 39.1891V38.0899H141.936V49.8549H143.782V45.7383C144.308 46.4234 145.306 46.871 146.337 46.871C148.893 46.871 150.45 45.0198 150.45 42.4104C150.45 39.8011 148.959 37.9499 146.436 37.9499M146.133 45.2421C144.641 45.2421 143.661 44.1094 143.661 42.4135C143.661 40.7175 144.644 39.5849 146.133 39.5849C147.621 39.5849 148.604 40.6993 148.604 42.4135C148.604 44.1277 147.621 45.2421 146.133 45.2421Z" fill="#F7F1EA"/>
<path d="M155.2 37.9529C153.387 37.9529 151.932 39.0673 151.661 40.7663L153.321 41.0738C153.438 40.0446 154.169 39.4266 155.2 39.4266C156.318 39.4266 157.046 40.0781 157.046 41.1408V41.2595L155.437 41.43C152.813 41.704 151.508 42.6144 151.508 44.3104C151.508 45.784 152.677 46.8649 154.37 46.8649C155.504 46.8649 156.556 46.2803 157.046 45.4065V46.7279H158.859V41.3417C158.859 39.1799 157.368 37.9468 155.203 37.9468M157.046 43.0102C157.028 44.4169 156.183 45.4278 154.743 45.4278C153.88 45.4278 153.321 44.9467 153.321 44.2616C153.321 43.5065 154.03 42.992 155.419 42.8367L157.046 42.6479V43.0072V43.0102Z" fill="#F7F1EA"/>
<path d="M164.956 37.9529C163.702 37.9529 162.722 38.6045 162.145 39.5301V38.0899H160.299V46.734H162.145V42.9433C162.145 40.8667 163.008 39.6336 164.448 39.6336C165.53 39.6336 166.192 40.3887 166.192 41.4696V46.734H168.038V41.0403C168.038 39.1708 166.769 37.9529 164.956 37.9529Z" fill="#F7F1EA"/>
<path d="M110.018 17.5743L105.412 29.5798H107.46L108.509 26.7512H113.385L114.435 29.5798H116.482L111.861 17.5743H110.015H110.018ZM109.155 25.0188L110.95 20.2172L112.745 25.0188H109.155Z" fill="#F7F1EA"/>
<path d="M183.351 38.0899L182.509 40.0873L181.682 38.0899H181.018V40.9337H181.571V39.2013L182.298 40.9337H182.731L183.453 39.2013V40.9337H184V38.0899H183.351Z" fill="#F7F1EA"/>
<path d="M178.475 38.6015H179.301V40.9337H179.903V38.6015H180.736V38.0899H178.475V38.6015Z" fill="#F7F1EA"/>
<path d="M94.143 0H93.5898V60H94.143V0Z" fill="#F7F1EA"/>
</g>
</g>
<defs>
<clipPath id="clip0_557_2436">
<rect width="184" height="60" fill="white"/>
</clipPath>
</defs>
</svg>
