<svg width="184" height="60" viewBox="0 0 184 60" fill="none" xmlns="http://www.w3.org/2000/svg">
<g clip-path="url(#clip0_557_2326)">
<mask id="mask0_557_2326" style="mask-type:luminance" maskUnits="userSpaceOnUse" x="0" y="0" width="184" height="60">
<path d="M184 0H0V60H184V0Z" fill="white"/>
</mask>
<g mask="url(#mask0_557_2326)">
<path d="M15.1466 53.5299H13.9951V59.8934H15.1466V53.5299Z" fill="#010C66"/>
<path d="M21.1142 53.5299V58.1335L18.5226 53.5299H17.1426V59.8965H18.1919V55.0157L20.9699 59.8965H22.1635V53.5299H21.1142Z" fill="#010C66"/>
</g>
<mask id="mask1_557_2326" style="mask-type:luminance" maskUnits="userSpaceOnUse" x="0" y="0" width="184" height="60">
<path d="M184 0H0V60H184V0Z" fill="white"/>
</mask>
<g mask="url(#mask1_557_2326)">
<path d="M26.3016 56.1179C25.2312 55.9474 25.0268 55.6947 25.0268 55.1832C25.0268 54.6717 25.3966 54.3337 26.0971 54.3337C26.7977 54.3337 27.1675 54.6108 27.2907 55.2898H28.34C28.2167 54.0597 27.414 53.4446 26.0971 53.4446C24.7803 53.4446 23.9354 54.2302 23.9354 55.2685C23.9354 56.4559 24.636 56.9218 26.1182 57.1349C27.1254 57.3054 27.414 57.5185 27.414 58.1123C27.414 58.706 26.939 59.0896 26.2414 59.0896C25.1922 59.0896 24.9456 58.5598 24.8614 57.9235H23.749C23.8302 59.1323 24.5518 60.0031 26.2174 60.0031C27.5974 60.0031 28.5024 59.1322 28.5024 58.03C28.5024 56.7573 27.7417 56.3341 26.3016 56.121" fill="#010C66"/>
<path d="M33.9165 57.3054C33.9165 58.6207 33.4625 59.0439 32.5786 59.0439C31.6947 59.0439 31.3038 58.5568 31.3038 57.3906V53.5299H30.1523V57.4759C30.1523 59.1109 31.0363 59.9787 32.5816 59.9787C34.2082 60 35.071 59.0652 35.071 57.4119V53.5299H33.9195V57.3054H33.9165Z" fill="#010C66"/>
<path d="M41.3875 55.4389V55.3963C41.3875 54.1023 40.4405 53.5299 39.0815 53.5299H37.001V59.8934H38.1525V57.3267H38.8921L40.4976 59.8934H41.7333L40.0045 57.1562C40.7652 56.9431 41.3845 56.4346 41.3845 55.4389M39.0815 56.5016L38.1555 56.4802V54.4646H39.0815C39.8211 54.4646 40.254 54.7204 40.254 55.442V55.4846C40.254 56.1636 39.8422 56.5046 39.0815 56.5046" fill="#010C66"/>
<path d="M45.0321 53.5299L42.9727 59.8934H44.043L44.515 58.3223H46.8812L47.3742 59.8934H48.5678L46.5294 53.5299H45.0261H45.0321ZM44.8036 57.4546L45.7297 54.4829L46.6346 57.4546H44.8036Z" fill="#010C66"/>
<path d="M54.0664 58.1336L51.4507 53.5299H50.0947V59.8965H51.123V55.0157L53.922 59.8965H55.1156V53.5299H54.0664V58.1336Z" fill="#010C66"/>
<path d="M59.8477 59.0257C58.7143 59.0257 58.0378 58.1762 58.0378 56.733V56.669C58.0378 55.2471 58.7594 54.3763 59.8297 54.3763C60.7136 54.3763 61.1676 54.8209 61.3119 55.6491H62.4845C62.3402 54.1419 61.2488 53.4203 59.8297 53.4203C58.1009 53.4203 56.8262 54.7569 56.8262 56.666V56.7299C56.8262 58.6816 57.8965 59.9543 59.8508 59.9543C61.3119 59.9543 62.3823 59.1688 62.5687 57.6403H61.4562C61.3119 58.5751 60.6956 59.0196 59.8508 59.0196" fill="#010C66"/>
<path d="M65.4669 57.1166H67.6286V56.2245H65.4669V54.4646H68.1638V53.5299H64.3154V59.8965H68.3292V58.9617H65.4669V57.1166Z" fill="#010C66"/>
<path d="M53.0169 4.0952C54.4992 4.0952 55.8371 3.62935 55.8371 3.01431C55.8371 2.82249 55.5695 2.90774 55.4462 2.95037C54.9742 3.07825 53.8197 3.41621 52.605 3.14219C52.4818 3.39795 52.2352 3.69329 51.5137 3.86379C51.9887 4.01299 52.5028 4.09824 53.0169 4.09824" fill="#010C66"/>
<path d="M59.3759 13.8963C58.943 13.473 58.51 13.0681 58.059 12.6875H50.8975C51.3514 13.0681 51.8024 13.473 52.2143 13.8963H59.3759Z" fill="#010C66"/>
<path d="M31.5924 5.81244C31.1384 6.02557 30.6453 6.13214 30.1522 6.13214C29.596 6.11083 29.0398 6.0682 28.4836 5.96163C28.3814 5.96163 28.3604 6.00426 28.3604 6.0682C28.3604 6.36659 29.1841 7.02425 30.7054 7.02425C31.4871 7.02425 32.1666 6.85375 32.6807 6.47315C32.2899 6.3879 31.7968 6.13518 31.5894 5.81548" fill="#010C66"/>
<path d="M56.2284 4.13782C58.3059 4.13782 60.0347 3.09956 60.0347 2.48452C60.0347 2.39926 59.9745 2.31401 59.8903 2.31401H59.8272C59.3552 2.42058 58.5103 3.09956 56.3486 3.09956C56.2855 3.56541 55.9999 3.84248 55.2783 4.07388C55.609 4.11651 55.9157 4.13782 56.2254 4.13782" fill="#010C66"/>
<path d="M56.9043 11.8167C56.309 11.3722 55.6686 10.9885 55.0102 10.6292H47.5811C48.3207 10.9703 49.0212 11.3722 49.7007 11.8167H56.9043Z" fill="#010C66"/>
<path d="M35.2128 2.27139C36.1598 2.27139 36.9205 3.05694 36.9415 4.03126V4.05257C36.9415 4.73155 36.5717 5.26134 36.0155 5.64498C36.0787 5.73024 36.1598 5.79417 36.22 5.87943C36.3222 6.00731 36.4244 6.11387 36.5296 6.2174C36.695 6.3879 36.8604 6.55841 37.0438 6.68324L37.167 6.78981C37.3534 6.91769 37.5368 7.04557 37.7443 7.14909C37.8255 7.19172 37.9307 7.23435 38.0119 7.27697C38.093 7.3196 38.2163 7.36223 38.3215 7.38354C38.526 7.44748 38.7545 7.46879 38.98 7.49011C39.0401 7.49011 39.0822 7.51142 39.1453 7.51142V8.61362C39.1453 9.48442 39.9902 9.95027 40.9763 9.95027C41.9624 9.95027 42.8073 9.48442 42.8073 8.61362V7.49011C42.8704 7.49011 42.9095 7.49011 42.9726 7.46879C43.1981 7.44748 43.4056 7.40485 43.6311 7.36223C43.7333 7.34091 43.8355 7.29829 43.9407 7.25566C44.043 7.21303 44.1271 7.17041 44.2083 7.12778C44.4128 7.02121 44.5992 6.91465 44.7856 6.7685L44.9088 6.66193C45.0922 6.51274 45.2576 6.36354 45.423 6.19608C45.5252 6.08952 45.6274 5.98295 45.7326 5.85507C45.7958 5.76982 45.877 5.70588 45.9371 5.62062C45.4019 5.24003 45.0111 4.7072 45.0111 4.02821C44.99 3.05085 45.7507 2.24703 46.6977 2.24703H46.7188C47.1728 2.26834 47.6238 2.43885 47.9936 2.71288C48.1379 2.49975 48.2611 2.28966 48.4054 2.07653C47.9124 1.71724 47.3351 1.52542 46.7398 1.50411C45.3809 1.4828 44.2715 2.60631 44.2504 3.98559V4.02821C44.2715 4.66457 44.518 5.27961 44.9299 5.74546C44.4759 6.21131 43.7964 6.84766 42.7682 6.82635V1.33665C42.7682 0.465848 41.9234 0 40.9342 0C39.9451 0 39.1032 0.465848 39.1032 1.33665V6.83244C38.075 6.85375 37.3955 6.2174 36.9415 5.75155C37.3745 5.2857 37.6 4.67066 37.621 4.0343C37.621 2.63372 36.5296 1.5102 35.1707 1.5102H35.1286C34.5303 1.53151 33.956 1.72333 33.46 2.08261C33.6043 2.29575 33.7275 2.50584 33.8719 2.71897C34.3258 2.46321 34.7558 2.29575 35.2098 2.27443M40.9763 0.593728C41.3671 0.572415 41.737 0.678981 42.0466 0.931696L40.9763 1.99127L39.906 0.931696C40.2126 0.675936 40.5854 0.572415 40.9763 0.593728ZM39.7015 1.40059L40.9763 2.65198L42.2511 1.37928V2.2927L40.9763 3.56541L39.7015 2.2927V1.40059ZM39.7015 2.97168L40.9763 4.24439L42.2511 2.97168V3.88511L40.9763 5.15782L39.7015 3.88511V2.97168ZM39.7015 4.53973L40.9763 5.81244L42.2511 4.53973V5.45316L40.9763 6.72587L39.7015 5.45316V4.53973ZM39.7015 6.11083L40.9763 7.38354L42.2511 6.11083V7.02426L40.9763 8.29697L39.7015 7.02426V6.11083ZM39.7015 7.68192L40.9763 8.95463L42.2511 7.68192V8.57404C42.2511 9.08251 41.737 9.3809 40.9763 9.3809C40.2156 9.3809 39.7015 9.0612 39.7015 8.57404V7.68192Z" fill="#010C66"/>
<path d="M48.4053 3.0752C48.9826 3.41317 49.641 3.56236 50.2995 3.54105C51.1022 3.54105 52.1094 3.3066 52.1094 2.94732C52.1094 2.77682 51.8208 2.81944 51.2646 2.84076C50.4408 2.9047 49.617 2.73419 48.8774 2.37491C48.712 2.56673 48.5677 2.81944 48.4023 3.0752H48.4053Z" fill="#010C66"/>
<path d="M35.2546 5.49579C35.0892 5.28266 34.9239 5.05125 34.6984 4.75287C34.082 5.15478 33.5258 5.38922 32.3112 5.3466C32.0857 5.3466 31.9805 5.3466 31.9805 5.47448C31.9805 5.6663 32.6599 6.08952 33.5048 6.08952C34.1211 6.0682 34.7405 5.87638 35.2546 5.49579Z" fill="#010C66"/>
<path d="M45.7291 4.00995C45.708 4.03126 45.708 4.05257 45.708 4.07389C45.7291 4.51842 45.9545 4.90206 46.3243 5.11215C46.4476 4.92033 46.613 4.73156 46.7783 4.49711C46.4476 4.30529 46.3033 4.00995 46.5108 3.7755C46.7152 3.54106 46.9647 3.62631 47.2504 3.86076C47.3736 3.66894 47.5179 3.48016 47.6623 3.26703C47.4368 3.07521 47.1481 2.94733 46.8385 2.94733C46.2402 2.92601 45.7471 3.39186 45.726 4.0069" fill="#010C66"/>
<path d="M55.3835 8.08383C54.5808 8.21171 53.757 8.14777 52.9753 7.8707C52.7498 8.29392 52.3589 8.52836 51.8418 8.67756C52.398 8.89069 52.9933 8.99726 53.5916 8.99726C54.8664 8.99726 55.7112 8.53141 55.7112 8.23302C55.7112 8.12646 55.609 8.0412 55.3805 8.08383" fill="#010C66"/>
<path d="M49.6407 5.32528C48.426 5.38922 47.8698 5.13346 47.2535 4.73155C47.049 5.02994 46.8626 5.28265 46.6973 5.47447C47.2114 5.85811 47.8097 6.04689 48.4471 6.0682C49.2919 6.0682 49.9714 5.64498 49.9714 5.45316C49.9714 5.32528 49.8692 5.32528 49.6407 5.32528Z" fill="#010C66"/>
<path d="M50.3206 8.42179C51.6374 8.42179 52.3379 7.892 52.3379 7.65755C52.3379 7.55099 52.2748 7.52967 52.1726 7.52967C52.0072 7.52967 51.433 7.59361 51.0391 7.59361C50.4017 7.59361 49.7644 7.44442 49.1871 7.14908C48.8383 7.55099 48.5497 7.63624 48.0566 7.72149C48.7361 8.16603 49.5178 8.42179 50.3206 8.42179Z" fill="#010C66"/>
<path d="M53.4471 5.96163C52.8909 6.0682 52.3347 6.11083 51.7815 6.13214C51.2884 6.13214 50.7924 6.02557 50.3414 5.81244C50.1369 6.13214 49.6408 6.36354 49.25 6.47011C49.7641 6.87201 50.4646 7.02121 51.2253 7.02121C52.7496 7.02121 53.5704 6.36354 53.5704 6.06515C53.5704 6.00121 53.5283 5.95859 53.4471 5.95859" fill="#010C66"/>
<path d="M43.7539 7.91332C44.0846 8.5923 44.5777 9.05814 45.2782 9.1434C45.6691 9.18602 46.0178 9.01552 46.0178 8.84501C46.0178 8.73844 45.7082 8.69582 45.5248 8.61057C45.0708 8.39743 44.701 8.05946 44.4755 7.61493C44.25 7.74281 44.0034 7.82806 43.7539 7.91332Z" fill="#010C66"/>
<path d="M53.9822 15.9972H61.2069C60.8973 15.5739 60.5485 15.169 60.1967 14.7884H53.0352C53.3659 15.169 53.6725 15.5739 53.9822 15.9972Z" fill="#010C66"/>
<path d="M45.5035 6.91769C45.3171 7.0882 45.1126 7.25566 44.9082 7.38354C45.2179 7.8707 45.6689 8.21172 46.204 8.3396C46.8835 8.46748 47.3555 8.08384 47.3555 7.89506C47.3555 7.7885 47.1511 7.7885 46.9857 7.76718C46.3904 7.70324 45.8523 7.38659 45.5035 6.91769Z" fill="#010C66"/>
<path d="M57.4819 6.47011C57.4819 6.38486 57.4218 6.29961 57.3376 6.29961H57.3166C56.9257 6.29961 56.577 6.59799 55.3623 6.59799C54.9294 6.57668 54.5175 6.51274 54.1056 6.38486C53.9402 6.85071 53.4472 7.14909 52.9541 7.29829C53.5314 7.46879 54.1267 7.55405 54.725 7.55405C56.3725 7.55405 57.4819 6.87507 57.4819 6.47316" fill="#010C66"/>
<path d="M50.6688 4.00994C49.5774 4.07388 48.919 3.946 48.0952 3.50146C47.9298 3.75722 47.7464 4.00994 47.5811 4.24439C48.1373 4.62803 48.7957 4.83811 49.4541 4.8168C50.299 4.8168 51.1017 4.45752 51.1017 4.18045C51.1438 4.05257 50.9574 3.98863 50.6688 4.00994Z" fill="#010C66"/>
<path d="M27.8461 6.3879C27.4342 6.51578 27.0012 6.57972 26.5893 6.60103C25.3536 6.60103 25.0049 6.30264 24.6351 6.30264C24.5539 6.30264 24.4697 6.36658 24.4697 6.45184V6.47315C24.4697 6.87506 25.5821 7.55404 27.2267 7.55404C27.822 7.55404 28.4203 7.46878 28.9976 7.29828C28.5045 7.14908 28.0084 6.85374 27.8461 6.38485" fill="#010C66"/>
<path d="M47.5001 7.27697C48.2818 7.27697 48.838 6.91768 48.838 6.72586C48.838 6.59799 48.7148 6.59798 48.5284 6.6193C47.7467 6.68324 46.986 6.4701 46.3456 6.00426L46.2855 6.08951C46.1412 6.26002 45.9969 6.43052 45.8525 6.57667C46.3456 6.99989 46.8597 7.27697 47.5001 7.27697Z" fill="#010C66"/>
<path d="M46.8418 8.76281C47.5634 9.22866 48.3842 9.50573 49.229 9.52705C50.134 9.54836 50.6691 9.22866 50.6691 9.01857C50.6691 8.89069 50.3204 8.95463 49.8062 8.91201C49.0847 8.86938 48.3872 8.61667 47.7889 8.1904C47.5844 8.53141 47.2326 8.7415 46.8418 8.76281Z" fill="#010C66"/>
<path d="M54.5174 4.43317C53.9402 4.56105 53.3659 4.6463 52.7676 4.66761C52.3557 4.66761 51.9649 4.60367 51.574 4.49711C51.4087 4.79549 50.9968 5.06952 50.3594 5.1974C50.8735 5.45316 51.4507 5.578 52.028 5.578C53.426 5.578 54.7459 5.11215 54.7459 4.60063C54.7459 4.49406 54.7038 4.40881 54.5204 4.43012" fill="#010C66"/>
<path d="M58.7782 4.28702C57.7079 4.75287 56.5353 4.92338 55.3628 4.77418C55.2996 5.1974 54.7645 5.62367 54.0459 5.76982C54.56 5.85507 55.0531 5.8977 55.5702 5.8977C57.4643 5.8977 59.0067 5.06952 59.0067 4.43317C59.0067 4.3266 58.9646 4.24135 58.7812 4.28398" fill="#010C66"/>
<path d="M21.259 36.9816H28.5859C28.3184 36.5797 28.0508 36.1534 27.8253 35.7302H20.6006C20.805 36.1534 21.0125 36.5797 21.259 36.9816Z" fill="#010C66"/>
<path d="M24.0371 40.5653C24.4911 41.0098 24.9421 41.4361 25.4351 41.8167H33.174C32.6178 41.4361 32.1247 41.0098 31.6316 40.5653H24.0371Z" fill="#010C66"/>
<path d="M46.7393 46.3169C47.8908 46.0824 49.0242 45.7658 50.1366 45.3608H31.8389C32.9513 45.7627 34.0817 46.0824 35.2363 46.3169C39.0425 47.0598 42.933 47.0598 46.7423 46.3169" fill="#010C66"/>
<path d="M35.0084 42.9646H27.002C27.7025 43.4304 28.421 43.8354 29.1637 44.216H38.2795C37.128 43.9602 36.0366 43.537 35.0084 42.9646Z" fill="#010C66"/>
<path d="M29.4311 38.1478H22.002C22.3116 38.571 22.6183 38.9973 22.9701 39.3992H30.4834C30.1136 38.9973 29.7618 38.5923 29.4341 38.1478" fill="#010C66"/>
<path d="M28.3394 8.99726C28.9377 8.99726 29.533 8.89069 30.0892 8.67756C29.5751 8.52836 29.1842 8.31828 28.9558 7.8707C28.1741 8.14777 27.3713 8.20866 26.5475 8.08383C26.322 8.0412 26.2168 8.12646 26.2168 8.23302C26.2378 8.53141 27.0616 8.99726 28.3364 8.99726" fill="#010C66"/>
<path d="M28.9168 14.7884H21.7552C21.4065 15.169 21.0758 15.5739 20.748 15.9972H27.9728C28.2824 15.5739 28.5891 15.169 28.9198 14.7884" fill="#010C66"/>
<path d="M18.7217 33.5441V18.2259C18.7007 17.7174 18.5774 17.5469 18.0422 17.5469H15.9016C15.3875 17.5469 15.2221 17.7174 15.2221 18.2259V26.9248L7.01725 17.9488C6.74967 17.6505 6.60536 17.5469 6.11229 17.5469H0.679477C0.207451 17.5469 0 17.7814 0 18.2259V33.5441C0 33.9886 0.22549 34.2231 0.679477 34.2231H2.84118C3.3132 34.2231 3.49961 33.9886 3.49961 33.5441V23.6578L12.5703 33.7146C12.859 34.0556 13.0033 34.2231 13.6407 34.2231H18.0663C18.5804 34.2231 18.7247 34.0526 18.7247 33.5441" fill="#010C66"/>
<path d="M43.6943 44.2373H52.8132C53.5528 43.8567 54.2743 43.4517 54.9749 42.9859H46.9685C45.9192 43.537 44.8278 43.9602 43.6973 44.2373" fill="#010C66"/>
<path d="M61.3516 35.7302H54.1269C53.9014 36.1534 53.6338 36.5797 53.3662 36.9816H60.6931C60.9397 36.5797 61.1471 36.1534 61.3516 35.7302Z" fill="#010C66"/>
<path d="M25.7062 4.13782C26.0159 4.13782 26.3436 4.11651 26.6533 4.0952C25.9347 3.86075 25.6461 3.58672 25.5829 3.12087C23.4212 3.12087 22.5794 2.42058 22.1044 2.33533C22.0232 2.31401 21.939 2.35664 21.918 2.44189V2.50583C21.918 3.07825 23.6467 4.14087 25.7062 4.14087" fill="#010C66"/>
<path d="M76.6215 18.0767C76.5403 17.7357 76.2306 17.5043 75.8819 17.547H69.3577C68.9458 17.547 68.6782 17.6748 68.5549 18.0767L63.1011 33.6294C62.9778 34.0313 63.08 34.2231 63.4709 34.2231H65.9002C66.3121 34.2231 66.4774 34.1805 66.6398 33.7146L67.668 30.7642H74.111L75.0791 33.3949C75.3467 34.1165 75.5331 34.2231 76.1073 34.2231H81.7055C82.3008 34.2231 82.4451 34.0313 82.2196 33.3736L76.6215 18.0767ZM68.7203 27.8352L70.8609 21.7244L73.0828 27.8352H68.7203Z" fill="#010C66"/>
<path d="M53.922 18.2472L50.6899 26.3524L47.3557 18.2472C47.1513 17.7388 46.9648 17.5469 46.3275 17.5469H39.9266C39.4124 17.5469 39.2471 17.7174 39.2471 18.2259V33.5441C39.2471 34.0526 39.4124 34.2231 39.9266 34.2231H42.0672C42.5813 34.2231 42.7467 34.0526 42.7467 33.5441V23.6578L46.8626 33.5228C47.1513 34.1378 47.2535 34.2231 47.7075 34.2231H50.5877C51.183 34.2231 51.3273 34.0952 51.5558 33.5654L55.4673 23.7004V33.5654C55.4673 34.0739 55.6327 34.2444 56.1468 34.2444H61.7239C62.2381 34.2444 62.3403 34.0739 62.3403 33.5654V18.2259C62.3403 17.7174 62.196 17.5469 61.6818 17.5469H54.869C54.2527 17.5469 54.1294 17.7814 53.922 18.2472Z" fill="#010C66"/>
<path d="M51.4717 39.3992H58.985C59.3338 38.9973 59.6434 38.571 59.9531 38.1478H52.524C52.1932 38.5923 51.8445 38.9973 51.4747 39.3992" fill="#010C66"/>
<path d="M50.3412 40.5653C49.8481 41.0098 49.331 41.4361 48.7988 41.8167H56.5377C57.0307 41.4148 57.4847 41.0098 57.9357 40.5653H50.3412Z" fill="#010C66"/>
<path d="M20.4178 34.2231H25.9739C26.4459 34.2018 26.6113 34.0312 26.6113 33.5441V26.2245L31.1391 33.6293C31.4488 34.1165 31.5931 34.2231 32.1072 34.2231H37.9099C38.4029 34.2231 38.5262 33.8394 38.2586 33.3949L33.9773 26.5198C36.3014 25.8622 38.0933 24.6534 38.0933 21.8522C38.0933 19.2215 36.2833 17.5439 33.6887 17.5439H20.4148C19.9007 17.5439 19.7354 17.7144 19.7354 18.2229V33.541C19.7354 34.0495 19.9007 34.22 20.4148 34.22M26.6113 19.6052H28.773C30.3154 19.6052 31.3255 20.476 31.3255 22.3424C31.3255 24.2089 30.3184 25.037 28.773 25.037H26.6113V19.6052Z" fill="#010C66"/>
<path d="M31.2616 4.00994C30.973 3.98863 30.8076 4.05257 30.8076 4.18045C30.8076 4.45752 31.6314 4.8168 32.4552 4.8168C33.1347 4.83811 33.7931 4.64629 34.3283 4.24439C34.1629 4.00994 33.9976 3.75722 33.8142 3.50146C33.0325 3.946 32.374 4.07388 31.2616 4.00994Z" fill="#010C66"/>
<path d="M30.3574 4.49711C29.9665 4.60368 29.5757 4.66762 29.1638 4.66762C28.5655 4.64631 27.9912 4.56105 27.414 4.43317C27.2276 4.41186 27.1885 4.49711 27.1885 4.60368C27.1885 5.11215 28.5053 5.578 29.9064 5.578C30.4836 5.578 31.0399 5.45012 31.572 5.19741C30.9346 5.06953 30.5227 4.7955 30.3574 4.49711Z" fill="#010C66"/>
<path d="M35.194 2.95036H35.1129C34.8032 2.97168 34.5146 3.07824 34.2891 3.27006C34.4334 3.4832 34.5566 3.67197 34.701 3.86379C34.9685 3.62934 35.2572 3.54409 35.4406 3.77854C35.627 4.01298 35.4827 4.30833 35.173 4.50014C35.3383 4.73459 35.4827 4.94468 35.627 5.11519C35.9968 4.90205 36.2253 4.50014 36.2433 4.07388C36.2644 3.45884 35.7893 2.95036 35.194 2.95036Z" fill="#010C66"/>
<path d="M36.1204 6.55537C35.9761 6.40618 35.8318 6.23567 35.6875 6.06821L35.6243 5.98296C34.987 6.4488 34.2263 6.68325 33.4416 6.598C33.2552 6.57668 33.1109 6.57668 33.1319 6.70456C33.1319 6.9177 33.6881 7.25566 34.4698 7.25566C35.0862 7.27698 35.6003 6.99991 36.1174 6.55537" fill="#010C66"/>
<path d="M28.9383 4.0952C29.4524 4.0952 29.9665 4.00995 30.4416 3.83944C29.702 3.66893 29.4524 3.37359 29.3502 3.11783C28.1356 3.39491 26.984 3.05389 26.509 2.92601C26.3857 2.88339 26.1182 2.79813 26.1182 2.98995C26.1182 3.62631 27.4561 4.09216 28.9383 4.09216" fill="#010C66"/>
<path d="M33.8742 7.72454C33.3811 7.63929 33.0925 7.55404 32.7407 7.15213C32.1634 7.45052 31.5261 7.59667 30.8887 7.59667C30.4978 7.61798 29.9206 7.53272 29.7552 7.53272C29.653 7.53272 29.5898 7.55404 29.5898 7.6606C29.5898 7.89505 30.2693 8.42484 31.6072 8.42484C32.41 8.42484 33.1917 8.16908 33.8712 7.72454" fill="#010C66"/>
<path d="M26.5901 4.77417C25.4386 4.92337 24.245 4.75286 23.1747 4.28701C22.9883 4.24439 22.9492 4.32964 22.9492 4.43621C22.9492 5.07256 24.4916 5.90073 26.3646 5.90073C26.8788 5.90073 27.3929 5.85811 27.889 5.77285C27.1884 5.60235 26.6533 5.20044 26.5931 4.77722" fill="#010C66"/>
<path d="M36.6741 9.1221C37.3746 9.03684 37.8466 8.571 38.1984 7.89201C37.9518 7.82807 37.7053 7.72151 37.4768 7.59363C37.2513 8.03816 36.8785 8.37918 36.4275 8.56795C36.2411 8.67452 35.9345 8.71714 35.9345 8.8024C35.9134 8.99422 36.2832 9.16472 36.6741 9.1221Z" fill="#010C66"/>
<path d="M31.6527 3.52278C32.3111 3.56541 32.9696 3.3949 33.5468 3.05693C33.3815 2.82249 33.2372 2.56977 33.0748 2.33533C32.3352 2.71592 31.5114 2.88643 30.6876 2.80118C30.1314 2.77986 29.8428 2.75855 29.8428 2.90774C29.8428 3.29138 30.85 3.52278 31.6527 3.52278Z" fill="#010C66"/>
<path d="M35.7296 8.3396C36.2648 8.1904 36.7188 7.85244 37.0254 7.38354C36.821 7.23435 36.6136 7.08516 36.4302 6.91769C36.0814 7.40486 35.5252 7.72456 34.9479 7.76718C34.7826 7.7885 34.5781 7.7885 34.5781 7.89506C34.5781 8.08688 35.0712 8.46748 35.7296 8.3396Z" fill="#010C66"/>
<path d="M29.7411 13.8963C30.153 13.473 30.604 13.0681 31.058 12.6875H23.9175C23.4635 13.0681 23.0335 13.473 22.6006 13.8963H29.7411Z" fill="#010C66"/>
<path d="M34.1635 8.2117C33.5682 8.63492 32.8677 8.86937 32.1462 8.93331C31.632 8.97593 31.2803 8.912 31.2803 9.03987C31.2803 9.25301 31.8154 9.54835 32.7414 9.54835C33.5863 9.52704 34.4071 9.24996 35.1286 8.78412C34.7167 8.7628 34.368 8.54967 34.1605 8.2117" fill="#010C66"/>
<path d="M34.3496 10.6079H26.9205C26.2621 10.9672 25.6457 11.3722 25.0264 11.7954H32.23C32.9095 11.3509 33.6281 10.9459 34.3496 10.6079Z" fill="#010C66"/>
<path d="M173.33 44.0759L171.096 38.0899H169.097L172.416 46.4752L171.129 49.8549H173.026L177.512 38.0899H175.615L173.33 44.0759Z" fill="#010C66"/>
<path d="M123.229 24.1967H128.818V29.5829H130.815V17.5743H128.818V22.4307H123.229V17.5743H121.248V29.5829H123.229V24.1967Z" fill="#010C66"/>
<path d="M136.425 20.7987C133.716 20.7987 132.261 22.927 132.261 25.2593C132.261 27.5916 133.8 29.7199 136.512 29.7199C138.508 29.7199 139.967 28.7608 140.423 27.0953L138.68 26.6508C138.46 27.5946 137.663 28.1275 136.545 28.1275C135.189 28.1275 134.242 27.2019 134.074 25.7099H140.592C140.61 25.5547 140.625 25.1954 140.625 24.9396C140.625 22.8296 139.17 20.8048 136.425 20.8048M134.155 24.2819C134.425 22.994 135.255 22.2754 136.425 22.2754C137.781 22.2754 138.541 23.1158 138.659 24.2819H134.155Z" fill="#010C66"/>
<path d="M143.91 17.4373H142.064V29.5798H143.91V17.4373Z" fill="#010C66"/>
<path d="M147.497 28.5872C148.024 29.2723 149.022 29.7199 150.053 29.7199C152.609 29.7199 154.166 27.8687 154.166 25.2593C154.166 22.65 152.675 20.7987 150.152 20.7987C148.968 20.7987 147.969 21.3316 147.494 22.0349V20.9358H145.648V32.7007H147.494V28.5842L147.497 28.5872ZM149.852 22.4307C151.343 22.4307 152.323 23.5451 152.323 25.2593C152.323 26.9735 151.34 28.0909 149.852 28.0909C148.363 28.0909 147.38 26.9583 147.38 25.2593C147.38 23.5603 148.363 22.4307 149.852 22.4307Z" fill="#010C66"/>
<path d="M111.289 36.3392C112.931 36.3392 114.134 37.3166 114.473 38.9303L116.437 38.501C116.013 36.1169 114.031 34.5915 111.289 34.5915C108.259 34.5915 105.466 36.6315 105.466 40.7328C105.466 44.8341 108.226 46.874 111.289 46.874C113.947 46.874 115.844 45.4339 116.419 43.1168L114.437 42.6875C114.065 44.1977 112.946 45.105 111.289 45.105C109.107 45.105 107.48 43.5796 107.48 40.7328C107.48 37.8859 109.122 36.3422 111.289 36.3422" fill="#010C66"/>
<path d="M121.948 37.9529C119.375 37.9529 117.547 39.8224 117.547 42.4135C117.547 45.0046 119.375 46.8741 121.948 46.8741C124.522 46.8741 126.35 45.0046 126.35 42.4135C126.35 39.8224 124.504 37.9529 121.948 37.9529ZM121.948 45.2421C120.424 45.2421 119.408 44.0759 119.408 42.4135C119.408 40.751 120.424 39.5819 121.948 39.5819C123.473 39.5819 124.489 40.748 124.489 42.4135C124.489 44.079 123.458 45.2421 121.948 45.2421Z" fill="#010C66"/>
<path d="M137.279 37.9529C135.941 37.9529 134.925 38.7263 134.468 39.6671C134.113 38.5527 133.13 37.9529 131.759 37.9529C130.523 37.9529 129.708 38.6045 129.251 39.5484V38.0899H127.405V46.734H129.251V42.3617C129.251 40.7145 129.979 39.5666 131.251 39.5666C132.333 39.5666 132.928 40.2882 132.928 41.3691V46.737H134.756V42.3648C134.756 40.7023 135.484 39.5697 136.756 39.5697C137.838 39.5697 138.448 40.2913 138.448 41.3722V46.7401H140.294V40.9094C140.294 39.1586 139.11 37.959 137.282 37.959" fill="#010C66"/>
<path d="M146.439 37.9529C145.255 37.9529 144.257 38.4857 143.782 39.1891V38.0899H141.936V49.8549H143.782V45.7383C144.308 46.4234 145.306 46.871 146.337 46.871C148.893 46.871 150.45 45.0198 150.45 42.4104C150.45 39.8011 148.959 37.9499 146.436 37.9499M146.133 45.2421C144.641 45.2421 143.661 44.1094 143.661 42.4135C143.661 40.7175 144.644 39.5849 146.133 39.5849C147.621 39.5849 148.604 40.6993 148.604 42.4135C148.604 44.1277 147.621 45.2421 146.133 45.2421Z" fill="#010C66"/>
<path d="M155.201 37.9529C153.388 37.9529 151.933 39.0673 151.662 40.7663L153.322 41.0738C153.439 40.0446 154.17 39.4266 155.201 39.4266C156.319 39.4266 157.047 40.0781 157.047 41.1408V41.2595L155.438 41.43C152.814 41.704 151.509 42.6144 151.509 44.3104C151.509 45.784 152.678 46.8649 154.371 46.8649C155.504 46.8649 156.557 46.2803 157.047 45.4065V46.7279H158.86V41.3417C158.86 39.1799 157.369 37.9468 155.204 37.9468M157.047 43.0102C157.029 44.4169 156.184 45.4278 154.744 45.4278C153.881 45.4278 153.322 44.9467 153.322 44.2616C153.322 43.5065 154.031 42.992 155.42 42.8367L157.047 42.6479V43.0072V43.0102Z" fill="#010C66"/>
<path d="M164.957 37.9529C163.703 37.9529 162.723 38.6045 162.146 39.5301V38.0899H160.3V46.734H162.146V42.9433C162.146 40.8667 163.009 39.6336 164.449 39.6336C165.531 39.6336 166.193 40.3887 166.193 41.4696V46.734H168.039V41.0403C168.039 39.1708 166.77 37.9529 164.957 37.9529Z" fill="#010C66"/>
<path d="M110.018 17.5743L105.412 29.5798H107.46L108.509 26.7512H113.385L114.435 29.5798H116.482L111.861 17.5743H110.015H110.018ZM109.155 25.0188L110.95 20.2172L112.745 25.0188H109.155Z" fill="#010C66"/>
<path d="M183.351 38.0899L182.509 40.0873L181.682 38.0899H181.018V40.9337H181.571V39.2013L182.298 40.9337H182.731L183.453 39.2013V40.9337H184V38.0899H183.351Z" fill="#010C66"/>
<path d="M178.474 38.6015H179.3V40.9337H179.902V38.6015H180.735V38.0899H178.474V38.6015Z" fill="#010C66"/>
<path d="M94.144 0H93.5908V60H94.144V0Z" fill="#010C66"/>
</g>
</g>
<defs>
<clipPath id="clip0_557_2326">
<rect width="184" height="60" fill="white"/>
</clipPath>
</defs>
</svg>
