<svg width="180" height="59" viewBox="0 0 180 59" fill="none" xmlns="http://www.w3.org/2000/svg">
<g clip-path="url(#clip0_1407_16867)">
<mask id="mask0_1407_16867" style="mask-type:luminance" maskUnits="userSpaceOnUse" x="0" y="0" width="180" height="59">
<path d="M180 0.958984H0V58.9178H180V0.958984Z" fill="white"/>
</mask>
<g mask="url(#mask0_1407_16867)">
<path d="M14.8179 52.668H13.6914V58.815H14.8179V52.668Z" fill="#F7F1EA"/>
<path d="M20.6558 52.668V57.115L18.1205 52.668H16.7705V58.818H17.797V54.1033L20.5146 58.818H21.6823V52.668H20.6558Z" fill="#F7F1EA"/>
</g>
<mask id="mask1_1407_16867" style="mask-type:luminance" maskUnits="userSpaceOnUse" x="0" y="0" width="180" height="59">
<path d="M180 0.958984H0V58.9178H180V0.958984Z" fill="white"/>
</mask>
<g mask="url(#mask1_1407_16867)">
<path d="M25.7295 55.1678C24.6824 55.0031 24.4824 54.759 24.4824 54.2649C24.4824 53.7707 24.8442 53.4443 25.5295 53.4443C26.2148 53.4443 26.5765 53.7119 26.6971 54.3678H27.7236C27.603 53.1796 26.8177 52.5854 25.5295 52.5854C24.2412 52.5854 23.4148 53.3443 23.4148 54.3472C23.4148 55.4943 24.1001 55.9443 25.5501 56.1502C26.5354 56.3149 26.8177 56.5207 26.8177 57.0943C26.8177 57.6678 26.353 58.0384 25.6707 58.0384C24.6442 58.0384 24.403 57.5266 24.3207 56.9119H23.2324C23.3118 58.0796 24.0177 58.9207 25.6471 58.9207C26.9971 58.9207 27.8824 58.0796 27.8824 57.0149C27.8824 55.7854 27.1383 55.3766 25.7295 55.1707" fill="#F7F1EA"/>
<path d="M33.1794 56.315C33.1794 57.5856 32.7353 57.9944 31.8706 57.9944C31.0059 57.9944 30.6235 57.5239 30.6235 56.3974V52.668H29.4971V56.4797C29.4971 58.0591 30.3618 58.8974 31.8735 58.8974C33.4647 58.918 34.3088 58.015 34.3088 56.418V52.668H33.1824V56.315H33.1794Z" fill="#F7F1EA"/>
<path d="M40.4884 54.5121V54.4709C40.4884 53.2209 39.562 52.668 38.2326 52.668H36.1973V58.815H37.3237V56.3356H38.0473L39.6179 58.815H40.8267L39.1355 56.1709C39.8796 55.965 40.4855 55.4739 40.4855 54.5121M38.2326 55.5386L37.3267 55.518V53.5709H38.2326C38.9561 53.5709 39.3796 53.818 39.3796 54.515V54.5562C39.3796 55.2121 38.9767 55.5415 38.2326 55.5415" fill="#F7F1EA"/>
<path d="M44.0528 52.668L42.0381 58.815H43.0851L43.5469 57.2974H45.8616L46.344 58.815H47.5116L45.5175 52.668H44.0469H44.0528ZM43.8293 56.4591L44.7351 53.5886L45.6204 56.4591H43.8293Z" fill="#F7F1EA"/>
<path d="M52.8912 57.115L50.3323 52.668H49.0059V58.818H50.0117V54.1033L52.75 58.818H53.9176V52.668H52.8912V57.115Z" fill="#F7F1EA"/>
<path d="M58.5467 57.9767C57.4379 57.9767 56.7761 57.1561 56.7761 55.762V55.7002C56.7761 54.3267 57.482 53.4855 58.5291 53.4855C59.3938 53.4855 59.8379 53.915 59.9791 54.715H61.1261C60.9849 53.2591 59.9173 52.562 58.5291 52.562C56.8379 52.562 55.5908 53.8532 55.5908 55.6973V55.7591C55.5908 57.6444 56.6379 58.8738 58.5496 58.8738C59.9791 58.8738 61.0261 58.115 61.2085 56.6385H60.1202C59.9791 57.5414 59.3761 57.9708 58.5496 57.9708" fill="#F7F1EA"/>
<path d="M64.0444 56.1327H66.1591V55.2709H64.0444V53.5709H66.6827V52.668H62.918V58.818H66.8444V57.915H64.0444V56.1327Z" fill="#F7F1EA"/>
<path d="M51.8651 4.91498C53.3151 4.91498 54.6239 4.46498 54.6239 3.87086C54.6239 3.68557 54.3622 3.76792 54.2416 3.8091C53.7798 3.93263 52.6504 4.2591 51.4622 3.99439C51.3416 4.24145 51.1004 4.52675 50.3945 4.69145C50.8592 4.83557 51.3622 4.91792 51.8651 4.91792" fill="#F7F1EA"/>
<path d="M58.0851 14.3825C57.6616 13.9737 57.2381 13.5825 56.7969 13.2148H49.791C50.2351 13.5825 50.6763 13.9737 51.0793 14.3825H58.0851Z" fill="#F7F1EA"/>
<path d="M30.9059 6.57373C30.4618 6.77961 29.9794 6.88255 29.4971 6.88255C28.953 6.86197 28.4088 6.82079 27.8647 6.71785C27.7647 6.71785 27.7441 6.75902 27.7441 6.82079C27.7441 7.10902 28.55 7.74432 30.0383 7.74432C30.803 7.74432 31.4677 7.57961 31.9706 7.21197C31.5883 7.12961 31.1059 6.8855 30.903 6.57667" fill="#F7F1EA"/>
<path d="M55.0056 4.9561C57.0379 4.9561 58.7291 3.95316 58.7291 3.35904C58.7291 3.27669 58.6703 3.19434 58.5879 3.19434H58.5262C58.0644 3.29728 57.2379 3.95316 55.1232 3.95316C55.0615 4.40316 54.7821 4.67081 54.0762 4.89434C54.3997 4.93551 54.6997 4.9561 55.0026 4.9561" fill="#F7F1EA"/>
<path d="M55.6675 12.3736C55.0851 11.9442 54.4586 11.5736 53.8145 11.2266H46.5469C47.2704 11.556 47.9557 11.9442 48.6204 12.3736H55.6675Z" fill="#F7F1EA"/>
<path d="M34.4471 3.1531C35.3736 3.1531 36.1177 3.91193 36.1383 4.8531V4.87369C36.1383 5.52957 35.7765 6.04134 35.2324 6.41193C35.2942 6.49428 35.3736 6.55604 35.4324 6.6384C35.5324 6.76193 35.6324 6.86487 35.7354 6.96487C35.8971 7.12957 36.0589 7.29428 36.2383 7.41487L36.3589 7.51781C36.5412 7.64134 36.7207 7.76487 36.9236 7.86487C37.003 7.90604 37.106 7.94722 37.1854 7.9884C37.2648 8.02957 37.3854 8.07075 37.4883 8.09134C37.6883 8.1531 37.9118 8.17369 38.1324 8.19428C38.1912 8.19428 38.2324 8.21487 38.2942 8.21487V9.27957C38.2942 10.1207 39.1207 10.5707 40.0854 10.5707C41.0501 10.5707 41.8765 10.1207 41.8765 9.27957V8.19428C41.9383 8.19428 41.9765 8.19428 42.0383 8.17369C42.2589 8.1531 42.4618 8.11193 42.6824 8.07075C42.7824 8.05016 42.8824 8.00898 42.9854 7.96781C43.0854 7.92663 43.1677 7.88546 43.2471 7.84428C43.4471 7.74134 43.6295 7.6384 43.8118 7.49722L43.9324 7.39428C44.1118 7.25016 44.2736 7.10604 44.4354 6.94428C44.5354 6.84134 44.6354 6.7384 44.7383 6.61487C44.8001 6.53251 44.8795 6.47075 44.9383 6.3884C44.4148 6.02075 44.0324 5.50604 44.0324 4.85016C44.0118 3.90604 44.756 3.12957 45.6824 3.12957H45.703C46.1471 3.15016 46.5883 3.31487 46.9501 3.57957C47.0912 3.37369 47.2118 3.17075 47.353 2.96487C46.8707 2.61781 46.306 2.43251 45.7236 2.41193C44.3942 2.39134 43.3089 3.47663 43.2883 4.80898V4.85016C43.3089 5.46487 43.5501 6.05898 43.953 6.50899C43.5089 6.95898 42.8442 7.57369 41.8383 7.5531V2.25016C41.8383 1.40898 41.0118 0.958984 40.0442 0.958984C39.0765 0.958984 38.253 1.40898 38.253 2.25016V7.55898C37.2471 7.57957 36.5824 6.96487 36.1383 6.51487C36.5618 6.06487 36.7824 5.47075 36.803 4.85604C36.803 3.5031 35.7354 2.41781 34.406 2.41781H34.3648C33.7795 2.4384 33.2177 2.62369 32.7324 2.97075C32.8736 3.17663 32.9942 3.37957 33.1354 3.58546C33.5795 3.3384 34.0001 3.17663 34.4442 3.15604M40.0854 1.53251C40.4677 1.51193 40.8295 1.61487 41.1324 1.85898L40.0854 2.88251L39.0383 1.85898C39.3383 1.61193 39.703 1.51193 40.0854 1.53251ZM38.8383 2.31193L40.0854 3.52075L41.3324 2.29134V3.17369L40.0854 4.4031L38.8383 3.17369V2.31193ZM38.8383 3.82957L40.0854 5.05898L41.3324 3.82957V4.71193L40.0854 5.94134L38.8383 4.71193V3.82957ZM38.8383 5.34428L40.0854 6.57369L41.3324 5.34428V6.22663L40.0854 7.45604L38.8383 6.22663V5.34428ZM38.8383 6.86193L40.0854 8.09134L41.3324 6.86193V7.74428L40.0854 8.97369L38.8383 7.74428V6.86193ZM38.8383 8.37957L40.0854 9.60898L41.3324 8.37957V9.24134C41.3324 9.73251 40.8295 10.0207 40.0854 10.0207C39.3412 10.0207 38.8383 9.71193 38.8383 9.24134V8.37957Z" fill="#F7F1EA"/>
<path d="M47.3525 3.9294C47.9173 4.25587 48.5614 4.39999 49.2055 4.3794C49.9908 4.3794 50.9761 4.15293 50.9761 3.80587C50.9761 3.64116 50.6937 3.68234 50.1496 3.70293C49.3437 3.76469 48.5378 3.59999 47.8143 3.25293C47.6526 3.43822 47.5114 3.68234 47.3496 3.9294H47.3525Z" fill="#F7F1EA"/>
<path d="M34.4881 6.26794C34.3263 6.06206 34.1646 5.83853 33.944 5.55029C33.341 5.93853 32.7969 6.165 31.6087 6.12382C31.3881 6.12382 31.2852 6.12382 31.2852 6.24735C31.2852 6.43265 31.9499 6.84147 32.7763 6.84147C33.3793 6.82088 33.9852 6.63559 34.4881 6.26794Z" fill="#F7F1EA"/>
<path d="M44.7354 4.83233C44.7148 4.85291 44.7148 4.8735 44.7148 4.89409C44.7354 5.3235 44.956 5.69409 45.3178 5.89703C45.4384 5.71174 45.6001 5.52938 45.7619 5.30291C45.4384 5.11762 45.2972 4.83233 45.5001 4.60585C45.7001 4.37938 45.9443 4.46174 46.2237 4.68821C46.3443 4.50291 46.4854 4.32056 46.6266 4.11468C46.406 3.92938 46.1237 3.80585 45.8207 3.80585C45.2354 3.78527 44.7531 4.23527 44.7325 4.82938" fill="#F7F1EA"/>
<path d="M54.1796 8.76789C53.3943 8.89142 52.5884 8.82966 51.8237 8.56201C51.6031 8.97084 51.2207 9.19731 50.7148 9.34142C51.259 9.54731 51.8413 9.65025 52.4266 9.65025C53.6737 9.65025 54.5001 9.20025 54.5001 8.91201C54.5001 8.80907 54.4001 8.72672 54.1766 8.76789" fill="#F7F1EA"/>
<path d="M48.562 6.10331C47.3738 6.16508 46.8297 5.91802 46.2267 5.52979C46.0267 5.81802 45.8444 6.06214 45.6826 6.24743C46.1856 6.61802 46.7709 6.80037 47.3944 6.82096C48.2209 6.82096 48.8856 6.41214 48.8856 6.22684C48.8856 6.10331 48.7856 6.10331 48.562 6.10331Z" fill="#F7F1EA"/>
<path d="M49.2264 9.09416C50.5147 9.09416 51.2 8.58239 51.2 8.35592C51.2 8.25298 51.1382 8.23239 51.0382 8.23239C50.8764 8.23239 50.3147 8.29416 49.9294 8.29416C49.3058 8.29416 48.6823 8.15004 48.1176 7.86475C47.7764 8.25298 47.4941 8.33533 47.0117 8.41769C47.6764 8.8471 48.4411 9.09416 49.2264 9.09416Z" fill="#F7F1EA"/>
<path d="M52.2856 6.71785C51.7415 6.82079 51.1973 6.86197 50.6562 6.88255C50.1738 6.88255 49.6885 6.77961 49.2473 6.57373C49.0473 6.88255 48.562 7.10608 48.1797 7.20902C48.6826 7.59726 49.3679 7.74138 50.112 7.74138C51.6032 7.74138 52.4062 7.10608 52.4062 6.81785C52.4062 6.75608 52.365 6.71491 52.2856 6.71491" fill="#F7F1EA"/>
<path d="M42.8027 8.60318C43.1263 9.25906 43.6086 9.70906 44.2939 9.79141C44.6763 9.83259 45.0174 9.66788 45.0174 9.50318C45.0174 9.40023 44.7145 9.35906 44.5351 9.27671C44.091 9.07082 43.7292 8.74435 43.5086 8.31494C43.288 8.43847 43.0469 8.52082 42.8027 8.60318Z" fill="#F7F1EA"/>
<path d="M52.8093 16.4118H59.8769C59.574 16.003 59.2328 15.6118 58.8887 15.2441H51.8828C52.2063 15.6118 52.5063 16.003 52.8093 16.4118Z" fill="#F7F1EA"/>
<path d="M44.515 7.64111C44.3326 7.80582 44.1326 7.96758 43.9326 8.09111C44.2356 8.5617 44.6767 8.89111 45.2003 9.01464C45.865 9.13817 46.3267 8.76758 46.3267 8.58523C46.3267 8.48229 46.1267 8.48229 45.965 8.4617C45.3826 8.39994 44.8562 8.09405 44.515 7.64111Z" fill="#F7F1EA"/>
<path d="M56.2321 7.20914C56.2321 7.12679 56.1733 7.04443 56.091 7.04443H56.0704C55.688 7.04443 55.3469 7.33267 54.1586 7.33267C53.7351 7.31208 53.3321 7.25032 52.9292 7.12679C52.7674 7.57679 52.2851 7.86502 51.8027 8.00914C52.3674 8.17385 52.9498 8.2562 53.5351 8.2562C55.1469 8.2562 56.2321 7.60032 56.2321 7.21208" fill="#F7F1EA"/>
<path d="M49.5675 4.83249C48.4998 4.89425 47.8557 4.77072 47.0498 4.34131C46.8881 4.58837 46.7086 4.83249 46.5469 5.05896C47.091 5.42954 47.7351 5.63249 48.3792 5.6119C49.2057 5.6119 49.991 5.26484 49.991 4.99719C50.0322 4.87366 49.8498 4.8119 49.5675 4.83249Z" fill="#F7F1EA"/>
<path d="M27.2414 7.12972C26.8385 7.25325 26.4149 7.31501 26.012 7.3356C24.8032 7.3356 24.462 7.04736 24.1002 7.04736C24.0208 7.04736 23.9385 7.10913 23.9385 7.19148V7.21207C23.9385 7.6003 25.0267 8.25619 26.6355 8.25619C27.2179 8.25619 27.8032 8.17383 28.3679 8.00913C27.8855 7.86501 27.4002 7.57972 27.2414 7.12677" fill="#F7F1EA"/>
<path d="M46.4672 7.9882C47.2319 7.9882 47.7761 7.64114 47.7761 7.45585C47.7761 7.33232 47.6555 7.33232 47.4731 7.35291C46.7084 7.41467 45.9643 7.20879 45.3378 6.75879L45.279 6.84114C45.1378 7.00585 44.9966 7.17055 44.8555 7.31173C45.3378 7.72055 45.8408 7.9882 46.4672 7.9882Z" fill="#F7F1EA"/>
<path d="M45.8232 9.42355C46.5291 9.87355 47.3321 10.1412 48.1585 10.1618C49.0438 10.1824 49.5674 9.87355 49.5674 9.67061C49.5674 9.54708 49.2262 9.60884 48.7232 9.56766C48.0174 9.52649 47.335 9.28237 46.7497 8.87061C46.5497 9.20002 46.2056 9.40296 45.8232 9.42355Z" fill="#F7F1EA"/>
<path d="M53.3323 5.24147C52.7676 5.365 52.2058 5.44735 51.6205 5.46794C51.2176 5.46794 50.8352 5.40617 50.4529 5.30323C50.2911 5.59147 49.8882 5.85617 49.2646 5.9797C49.7676 6.22676 50.3323 6.34735 50.897 6.34735C52.2647 6.34735 53.5558 5.89735 53.5558 5.40323C53.5558 5.30029 53.5146 5.21794 53.3352 5.23853" fill="#F7F1EA"/>
<path d="M57.4995 5.1002C56.4525 5.5502 55.3054 5.7149 54.1584 5.57078C54.0966 5.97961 53.5731 6.39137 52.8701 6.53255C53.3731 6.6149 53.8554 6.65608 54.3613 6.65608C56.2142 6.65608 57.7231 5.85608 57.7231 5.24137C57.7231 5.13843 57.6819 5.05608 57.5025 5.09725" fill="#F7F1EA"/>
<path d="M20.7974 36.6825H27.9651C27.7033 36.2942 27.4416 35.8825 27.221 35.4736H20.1533C20.3533 35.8825 20.5563 36.2942 20.7974 36.6825Z" fill="#F7F1EA"/>
<path d="M23.5146 40.144C23.9588 40.5735 24.3999 40.9852 24.8823 41.3529H32.4529C31.9088 40.9852 31.4264 40.5735 30.9441 40.144H23.5146Z" fill="#F7F1EA"/>
<path d="M45.7239 45.7004C46.8504 45.4739 47.9592 45.168 49.0475 44.7769H31.1475C32.2357 45.1651 33.3416 45.4739 34.471 45.7004C38.1945 46.418 42.0004 46.418 45.7269 45.7004" fill="#F7F1EA"/>
<path d="M34.2474 42.4619H26.415C27.1003 42.9119 27.8033 43.3031 28.5297 43.6707H37.4474C36.3209 43.4237 35.2533 43.0149 34.2474 42.4619Z" fill="#F7F1EA"/>
<path d="M28.7911 37.8091H21.5234C21.8264 38.2179 22.1264 38.6297 22.4705 39.0179H29.8205C29.4587 38.6297 29.1146 38.2385 28.794 37.8091" fill="#F7F1EA"/>
<path d="M27.7239 9.65025C28.3092 9.65025 28.8916 9.54731 29.4357 9.34142C28.9328 9.19731 28.5504 8.99436 28.3269 8.56201C27.5622 8.82966 26.7769 8.88848 25.971 8.76789C25.7504 8.72672 25.6475 8.80907 25.6475 8.91201C25.668 9.20025 26.4739 9.65025 27.721 9.65025" fill="#F7F1EA"/>
<path d="M28.288 15.2441H21.2822C20.941 15.6118 20.6175 16.003 20.2969 16.4118H27.3645C27.6675 16.003 27.9675 15.6118 28.291 15.2441" fill="#F7F1EA"/>
<path d="M18.3147 33.3621V18.5651C18.2941 18.0739 18.1735 17.9092 17.65 17.9092H15.5559C15.0529 17.9092 14.8912 18.0739 14.8912 18.5651V26.968L6.86471 18.2974C6.60294 18.0092 6.46176 17.9092 5.97941 17.9092H0.664706C0.202941 17.9092 0 18.1357 0 18.5651V33.3621C0 33.7915 0.220588 34.018 0.664706 34.018H2.77941C3.24118 34.018 3.42353 33.7915 3.42353 33.3621V23.8121L12.2971 33.5268C12.5794 33.8562 12.7206 34.018 13.3441 34.018H17.6735C18.1765 34.018 18.3176 33.8533 18.3176 33.3621" fill="#F7F1EA"/>
<path d="M42.7441 43.6912H51.6647C52.3883 43.3236 53.0941 42.9324 53.7794 42.4824H45.9471C44.9206 43.0148 43.853 43.4236 42.7471 43.6912" fill="#F7F1EA"/>
<path d="M60.0178 35.4736H52.9502C52.7296 35.8825 52.4678 36.2942 52.2061 36.6825H59.3737C59.6149 36.2942 59.8178 35.8825 60.0178 35.4736Z" fill="#F7F1EA"/>
<path d="M25.1473 4.9559C25.4502 4.9559 25.7708 4.93531 26.0738 4.91472C25.3708 4.68825 25.0885 4.42354 25.0267 3.97354C22.912 3.97354 22.0885 3.29707 21.6238 3.21472C21.5443 3.19413 21.462 3.23531 21.4414 3.31766V3.37942C21.4414 3.93237 23.1326 4.95884 25.1473 4.95884" fill="#F7F1EA"/>
<path d="M74.9564 18.4209C74.8769 18.0915 74.574 17.868 74.2328 17.9092H67.8505C67.4475 17.9092 67.1858 18.0327 67.0652 18.4209L61.7299 33.4445C61.6093 33.8327 61.7093 34.018 62.0917 34.018H64.4681C64.8711 34.018 65.0328 33.9768 65.1916 33.5268L66.1975 30.6768H72.5005L73.4475 33.218C73.7093 33.9151 73.8916 34.018 74.4534 34.018H79.9299C80.5122 34.018 80.6534 33.8327 80.4328 33.1974L74.9564 18.4209ZM67.2269 27.8474L69.3211 21.9445L71.4946 27.8474H67.2269Z" fill="#F7F1EA"/>
<path d="M52.7504 18.5856L49.5887 26.4151L46.3269 18.5856C46.1269 18.0945 45.9445 17.9092 45.321 17.9092H39.0592C38.5563 17.9092 38.3945 18.0739 38.3945 18.5651V33.3621C38.3945 33.8533 38.5563 34.018 39.0592 34.018H41.1534C41.6563 34.018 41.8181 33.8533 41.8181 33.3621V23.8121L45.8445 33.3415C46.1269 33.9356 46.2269 34.018 46.671 34.018H49.4886C50.071 34.018 50.2122 33.8945 50.4357 33.3827L54.2622 23.8533V33.3827C54.2622 33.8739 54.4239 34.0386 54.9269 34.0386H60.3828C60.8857 34.0386 60.9857 33.8739 60.9857 33.3827V18.5651C60.9857 18.0739 60.8445 17.9092 60.3416 17.9092H53.6769C53.0739 17.9092 52.9534 18.1357 52.7504 18.5856Z" fill="#F7F1EA"/>
<path d="M50.3525 39.0179H57.7025C58.0437 38.6297 58.3467 38.2179 58.6496 37.8091H51.382C51.0584 38.2385 50.7172 38.6297 50.3555 39.0179" fill="#F7F1EA"/>
<path d="M49.2471 40.144C48.7648 40.5735 48.2589 40.9852 47.7383 41.3529H55.3089C55.7912 40.9646 56.2353 40.5735 56.6765 40.144H49.2471Z" fill="#F7F1EA"/>
<path d="M19.9733 34.018H25.4086C25.8704 33.9974 26.0321 33.8327 26.0321 33.3621V26.2915L30.4615 33.4445C30.7645 33.9151 30.9057 34.018 31.4086 34.018H37.0851C37.5674 34.018 37.688 33.6474 37.4263 33.218L33.238 26.5768C35.5115 25.9415 37.2645 24.7739 37.2645 22.068C37.2645 19.5268 35.4939 17.9062 32.9557 17.9062H19.9704C19.4674 17.9062 19.3057 18.071 19.3057 18.5621V33.3592C19.3057 33.8504 19.4674 34.0151 19.9704 34.0151M26.0321 19.8974H28.1468C29.6557 19.8974 30.6439 20.7386 30.6439 22.5415C30.6439 24.3445 29.6586 25.1445 28.1468 25.1445H26.0321V19.8974Z" fill="#F7F1EA"/>
<path d="M30.5828 4.83248C30.3004 4.8119 30.1387 4.87366 30.1387 4.99719C30.1387 5.26484 30.9446 5.6119 31.7504 5.6119C32.4151 5.63248 33.0593 5.44719 33.5828 5.05896C33.421 4.83248 33.2593 4.58837 33.0798 4.34131C32.3151 4.77072 31.671 4.89425 30.5828 4.83248Z" fill="#F7F1EA"/>
<path d="M29.6967 5.30322C29.3143 5.40616 28.932 5.46793 28.529 5.46793C27.9437 5.44734 27.382 5.36499 26.8173 5.24146C26.6349 5.22087 26.5967 5.30322 26.5967 5.40616C26.5967 5.89734 27.8849 6.34734 29.2555 6.34734C29.8202 6.34734 30.3643 6.22381 30.8849 5.97969C30.2614 5.85616 29.8584 5.59146 29.6967 5.30322Z" fill="#F7F1EA"/>
<path d="M34.4292 3.80908H34.3498C34.0469 3.82967 33.7645 3.93261 33.5439 4.11791C33.6851 4.32379 33.8057 4.50614 33.9469 4.69143C34.2086 4.46496 34.491 4.38261 34.6704 4.60908C34.8528 4.83555 34.7116 5.12085 34.4086 5.30614C34.5704 5.53261 34.7116 5.73555 34.8528 5.90026C35.2145 5.69438 35.4381 5.30614 35.4557 4.89438C35.4763 4.30026 35.0116 3.80908 34.4292 3.80908Z" fill="#F7F1EA"/>
<path d="M35.3357 7.29122C35.1945 7.1471 35.0533 6.9824 34.9122 6.82063L34.8504 6.73828C34.2269 7.18828 33.4827 7.41475 32.7151 7.3324C32.5327 7.31181 32.3916 7.31181 32.4122 7.43534C32.4122 7.64122 32.9563 7.96769 33.721 7.96769C34.3239 7.98828 34.8269 7.72063 35.3327 7.29122" fill="#F7F1EA"/>
<path d="M28.3086 4.91507C28.8116 4.91507 29.3145 4.83272 29.7792 4.66801C29.0557 4.50331 28.8116 4.21801 28.7116 3.97096C27.5233 4.2386 26.3969 3.90919 25.9322 3.78566C25.8116 3.74448 25.5498 3.66213 25.5498 3.84743C25.5498 4.46213 26.8586 4.91213 28.3086 4.91213" fill="#F7F1EA"/>
<path d="M33.1384 8.42062C32.6561 8.33826 32.3737 8.25591 32.0296 7.86768C31.4649 8.15591 30.8414 8.29709 30.2179 8.29709C29.8355 8.31768 29.2708 8.23532 29.109 8.23532C29.009 8.23532 28.9473 8.25591 28.9473 8.35885C28.9473 8.58532 29.612 9.09709 30.9208 9.09709C31.7061 9.09709 32.4708 8.85003 33.1355 8.42062" fill="#F7F1EA"/>
<path d="M26.012 5.57077C24.8855 5.71489 23.7178 5.55018 22.6708 5.10018C22.4884 5.05901 22.4502 5.14136 22.4502 5.2443C22.4502 5.85901 23.959 6.65901 25.7914 6.65901C26.2943 6.65901 26.7973 6.61783 27.2825 6.53548C26.5973 6.37077 26.0737 5.98254 26.0149 5.57371" fill="#F7F1EA"/>
<path d="M35.8767 9.7709C36.562 9.68855 37.0238 9.23855 37.3679 8.58267C37.1267 8.5209 36.8855 8.41796 36.662 8.29443C36.4414 8.72385 36.0767 9.05326 35.6355 9.23561C35.4532 9.33855 35.1532 9.37973 35.1532 9.46208C35.1326 9.64737 35.4944 9.81208 35.8767 9.7709Z" fill="#F7F1EA"/>
<path d="M30.9649 4.3619C31.609 4.40308 32.2532 4.23837 32.8179 3.9119C32.6561 3.68543 32.5149 3.44131 32.3561 3.21484C31.6326 3.58249 30.8267 3.7472 30.0208 3.66484C29.4767 3.64426 29.1943 3.62367 29.1943 3.76778C29.1943 4.13837 30.1796 4.3619 30.9649 4.3619Z" fill="#F7F1EA"/>
<path d="M34.9526 9.01464C35.4762 8.87053 35.9203 8.54405 36.2203 8.09111C36.0203 7.947 35.8173 7.80288 35.6379 7.64111C35.2968 8.1117 34.7526 8.42053 34.1879 8.4617C34.0262 8.48229 33.8262 8.48229 33.8262 8.58523C33.8262 8.77053 34.3085 9.13817 34.9526 9.01464Z" fill="#F7F1EA"/>
<path d="M29.0937 14.3825C29.4966 13.9737 29.9378 13.5825 30.3819 13.2148H23.3966C22.9525 13.5825 22.5319 13.9737 22.1084 14.3825H29.0937Z" fill="#F7F1EA"/>
<path d="M33.4202 8.89111C32.8378 9.29994 32.1526 9.52641 31.4467 9.58817C30.9437 9.62935 30.5996 9.56758 30.5996 9.69111C30.5996 9.897 31.1231 10.1823 32.029 10.1823C32.8555 10.1617 33.6584 9.89405 34.3643 9.44405C33.9614 9.42347 33.6202 9.21758 33.4173 8.89111" fill="#F7F1EA"/>
<path d="M33.603 11.2061H26.3354C25.6912 11.5531 25.0883 11.9443 24.4824 12.3531H31.5295C32.1942 11.9237 32.8971 11.5325 33.603 11.2061Z" fill="#F7F1EA"/>
<path d="M169.562 43.5353L167.377 37.7529H165.421L168.668 45.8529L167.409 49.1176H169.265L173.653 37.7529H171.797L169.562 43.5353Z" fill="#F7F1EA"/>
<path d="M120.55 24.3326H126.017V29.5355H127.97V17.9355H126.017V22.6267H120.55V17.9355H118.611V29.5355H120.55V24.3326Z" fill="#F7F1EA"/>
<path d="M133.459 21.0503C130.809 21.0503 129.386 23.1062 129.386 25.3591C129.386 27.6121 130.892 29.6679 133.545 29.6679C135.498 29.6679 136.924 28.7415 137.371 27.1326L135.665 26.7032C135.45 27.615 134.671 28.1297 133.577 28.1297C132.25 28.1297 131.324 27.2356 131.159 25.7944H137.536C137.553 25.6444 137.568 25.2974 137.568 25.0503C137.568 23.0121 136.145 21.0562 133.459 21.0562M131.239 24.415C131.503 23.1709 132.315 22.4768 133.459 22.4768C134.786 22.4768 135.53 23.2885 135.645 24.415H131.239Z" fill="#F7F1EA"/>
<path d="M140.782 17.8032H138.977V29.5326H140.782V17.8032Z" fill="#F7F1EA"/>
<path d="M144.291 28.5738C144.806 29.2356 145.782 29.6679 146.791 29.6679C149.291 29.6679 150.815 27.8797 150.815 25.3591C150.815 22.8385 149.356 21.0503 146.888 21.0503C145.729 21.0503 144.753 21.565 144.288 22.2444V21.1826H142.482V32.5474H144.288V28.5709L144.291 28.5738ZM146.594 22.6268C148.053 22.6268 149.012 23.7032 149.012 25.3591C149.012 27.015 148.05 28.0944 146.594 28.0944C145.138 28.0944 144.177 27.0003 144.177 25.3591C144.177 23.7179 145.138 22.6268 146.594 22.6268Z" fill="#F7F1EA"/>
<path d="M108.871 36.0618C110.477 36.0618 111.653 37.0059 111.986 38.5647L113.906 38.15C113.491 35.8471 111.553 34.3735 108.871 34.3735C105.906 34.3735 103.174 36.3441 103.174 40.3059C103.174 44.2677 105.874 46.2382 108.871 46.2382C111.471 46.2382 113.327 44.8471 113.889 42.6088L111.95 42.1941C111.586 43.6529 110.491 44.5294 108.871 44.5294C106.736 44.5294 105.144 43.0559 105.144 40.3059C105.144 37.5559 106.75 36.0647 108.871 36.0647" fill="#F7F1EA"/>
<path d="M119.297 37.6206C116.779 37.6206 114.991 39.4265 114.991 41.9294C114.991 44.4324 116.779 46.2382 119.297 46.2382C121.815 46.2382 123.603 44.4324 123.603 41.9294C123.603 39.4265 121.797 37.6206 119.297 37.6206ZM119.297 44.6618C117.806 44.6618 116.812 43.5353 116.812 41.9294C116.812 40.3235 117.806 39.1941 119.297 39.1941C120.788 39.1941 121.782 40.3206 121.782 41.9294C121.782 43.5383 120.774 44.6618 119.297 44.6618Z" fill="#F7F1EA"/>
<path d="M134.295 37.6206C132.986 37.6206 131.992 38.3677 131.545 39.2765C131.198 38.2 130.236 37.6206 128.895 37.6206C127.686 37.6206 126.889 38.25 126.442 39.1618V37.753H124.636V46.103H126.442V41.8794C126.442 40.2883 127.153 39.1794 128.398 39.1794C129.456 39.1794 130.039 39.8765 130.039 40.9206V46.1059H131.827V41.8824C131.827 40.2765 132.539 39.1824 133.783 39.1824C134.842 39.1824 135.439 39.8794 135.439 40.9235V46.1088H137.245V40.4765C137.245 38.7853 136.086 37.6265 134.298 37.6265" fill="#F7F1EA"/>
<path d="M143.255 37.6206C142.097 37.6206 141.12 38.1353 140.655 38.8147V37.753H138.85V49.1177H140.655V45.1412C141.17 45.803 142.147 46.2353 143.155 46.2353C145.655 46.2353 147.179 44.4471 147.179 41.9265C147.179 39.4059 145.72 37.6177 143.253 37.6177M142.955 44.6618C141.497 44.6618 140.538 43.5677 140.538 41.9294C140.538 40.2912 141.5 39.1971 142.955 39.1971C144.411 39.1971 145.373 40.2736 145.373 41.9294C145.373 43.5853 144.411 44.6618 142.955 44.6618Z" fill="#F7F1EA"/>
<path d="M151.827 37.6206C150.053 37.6206 148.63 38.6971 148.365 40.3383L149.988 40.6353C150.103 39.6412 150.818 39.0442 151.827 39.0442C152.921 39.0442 153.632 39.6736 153.632 40.7V40.8147L152.059 40.9795C149.491 41.2442 148.215 42.1236 148.215 43.7618C148.215 45.1853 149.359 46.2295 151.015 46.2295C152.124 46.2295 153.153 45.6647 153.632 44.8206V46.0971H155.406V40.8942C155.406 38.8059 153.947 37.6147 151.83 37.6147M153.632 42.5059C153.615 43.8647 152.788 44.8412 151.38 44.8412C150.535 44.8412 149.988 44.3765 149.988 43.7147C149.988 42.9853 150.682 42.4883 152.041 42.3383L153.632 42.1559V42.503V42.5059Z" fill="#F7F1EA"/>
<path d="M161.37 37.6206C160.144 37.6206 159.185 38.25 158.62 39.1441V37.753H156.814V46.103H158.62V42.4412C158.62 40.4353 159.464 39.2441 160.873 39.2441C161.932 39.2441 162.579 39.9735 162.579 41.0177V46.103H164.385V40.603C164.385 38.7971 163.144 37.6206 161.37 37.6206Z" fill="#F7F1EA"/>
<path d="M107.626 17.9355L103.12 29.5326H105.123L106.15 26.8003H110.92L111.947 29.5326H113.95L109.429 17.9355H107.623H107.626ZM106.782 25.1267L108.538 20.4885L110.294 25.1267H106.782Z" fill="#F7F1EA"/>
<path d="M179.364 37.7529L178.541 39.6823L177.732 37.7529H177.082V40.5H177.623V38.8265L178.335 40.5H178.759L179.464 38.8265V40.5H180V37.7529H179.364Z" fill="#F7F1EA"/>
<path d="M174.594 38.247H175.403V40.5H175.991V38.247H176.806V37.7529H174.594V38.247Z" fill="#F7F1EA"/>
<path d="M92.0968 0.958984H91.5557V58.9178H92.0968V0.958984Z" fill="#F7F1EA"/>
</g>
</g>
<defs>
<clipPath id="clip0_1407_16867">
<rect width="180" height="57.9588" fill="white" transform="translate(0 0.958984)"/>
</clipPath>
</defs>
</svg>
