<svg width="180" height="58" viewBox="0 0 180 58" fill="none" xmlns="http://www.w3.org/2000/svg">
<g clip-path="url(#clip0_1407_16782)">
<mask id="mask0_1407_16782" style="mask-type:luminance" maskUnits="userSpaceOnUse" x="0" y="0" width="180" height="58">
<path d="M180 0H0V57.9588H180V0Z" fill="white"/>
</mask>
<g mask="url(#mask0_1407_16782)">
<path d="M14.8179 51.709H13.6914V57.856H14.8179V51.709Z" fill="#010C66"/>
<path d="M20.6558 51.709V56.156L18.1205 51.709H16.7705V57.859H17.797V53.1443L20.5146 57.859H21.6823V51.709H20.6558Z" fill="#010C66"/>
</g>
<mask id="mask1_1407_16782" style="mask-type:luminance" maskUnits="userSpaceOnUse" x="0" y="0" width="180" height="58">
<path d="M180 0H0V57.9588H180V0Z" fill="white"/>
</mask>
<g mask="url(#mask1_1407_16782)">
<path d="M25.7295 54.2088C24.6824 54.0441 24.4824 53.8 24.4824 53.3059C24.4824 52.8118 24.8442 52.4853 25.5295 52.4853C26.2148 52.4853 26.5765 52.7529 26.6971 53.4088H27.7236C27.603 52.2206 26.8177 51.6265 25.5295 51.6265C24.2412 51.6265 23.4148 52.3853 23.4148 53.3882C23.4148 54.5353 24.1001 54.9853 25.5501 55.1912C26.5354 55.3559 26.8177 55.5618 26.8177 56.1353C26.8177 56.7088 26.353 57.0794 25.6707 57.0794C24.6442 57.0794 24.403 56.5676 24.3207 55.9529H23.2324C23.3118 57.1206 24.0177 57.9618 25.6471 57.9618C26.9971 57.9618 27.8824 57.1206 27.8824 56.0559C27.8824 54.8265 27.1383 54.4176 25.7295 54.2118" fill="#010C66"/>
<path d="M33.1794 55.356C33.1794 56.6266 32.7353 57.0355 31.8706 57.0355C31.0059 57.0355 30.6235 56.5649 30.6235 55.4384V51.709H29.4971V55.5208C29.4971 57.1002 30.3618 57.9384 31.8735 57.9384C33.4647 57.959 34.3088 57.056 34.3088 55.459V51.709H33.1824V55.356H33.1794Z" fill="#010C66"/>
<path d="M40.4884 53.5531V53.5119C40.4884 52.2619 39.562 51.709 38.2326 51.709H36.1973V57.856H37.3237V55.3766H38.0473L39.6179 57.856H40.8267L39.1355 55.2119C39.8796 55.006 40.4855 54.5149 40.4855 53.5531M38.2326 54.5796L37.3267 54.559V52.6119H38.2326C38.9561 52.6119 39.3796 52.859 39.3796 53.556V53.5972C39.3796 54.2531 38.9767 54.5825 38.2326 54.5825" fill="#010C66"/>
<path d="M44.0528 51.709L42.0381 57.856H43.0851L43.5469 56.3384H45.8616L46.344 57.856H47.5116L45.5175 51.709H44.0469H44.0528ZM43.8293 55.5002L44.7351 52.6296L45.6204 55.5002H43.8293Z" fill="#010C66"/>
<path d="M52.8912 56.156L50.3323 51.709H49.0059V57.859H50.0117V53.1443L52.75 57.859H53.9176V51.709H52.8912V56.156Z" fill="#010C66"/>
<path d="M58.5467 57.0177C57.4379 57.0177 56.7761 56.1971 56.7761 54.803V54.7413C56.7761 53.3677 57.482 52.5266 58.5291 52.5266C59.3938 52.5266 59.8379 52.956 59.9791 53.756H61.1261C60.9849 52.3001 59.9173 51.603 58.5291 51.603C56.8379 51.603 55.5908 52.8942 55.5908 54.7383V54.8001C55.5908 56.6854 56.6379 57.9148 58.5496 57.9148C59.9791 57.9148 61.0261 57.156 61.2085 55.6795H60.1202C59.9791 56.5824 59.3761 57.0119 58.5496 57.0119" fill="#010C66"/>
<path d="M64.0444 55.1737H66.1591V54.3119H64.0444V52.6119H66.6827V51.709H62.918V57.859H66.8444V56.956H64.0444V55.1737Z" fill="#010C66"/>
<path d="M51.8651 3.956C53.3151 3.956 54.6239 3.506 54.6239 2.91188C54.6239 2.72659 54.3622 2.80894 54.2416 2.85011C53.7798 2.97364 52.6504 3.30011 51.4622 3.03541C51.3416 3.28247 51.1004 3.56776 50.3945 3.73247C50.8592 3.87659 51.3622 3.95894 51.8651 3.95894" fill="#010C66"/>
<path d="M58.0851 13.4235C57.6616 13.0147 57.2381 12.6235 56.7969 12.2559H49.791C50.2351 12.6235 50.6763 13.0147 51.0793 13.4235H58.0851Z" fill="#010C66"/>
<path d="M30.9059 5.61475C30.4618 5.82063 29.9794 5.92357 29.4971 5.92357C28.953 5.90298 28.4088 5.8618 27.8647 5.75886C27.7647 5.75886 27.7441 5.80004 27.7441 5.8618C27.7441 6.15004 28.55 6.78533 30.0383 6.78533C30.803 6.78533 31.4677 6.62063 31.9706 6.25298C31.5883 6.17063 31.1059 5.92651 30.903 5.61769" fill="#010C66"/>
<path d="M55.0056 3.99712C57.0379 3.99712 58.7291 2.99418 58.7291 2.40006C58.7291 2.3177 58.6703 2.23535 58.5879 2.23535H58.5262C58.0644 2.33829 57.2379 2.99418 55.1232 2.99418C55.0615 3.44418 54.7821 3.71182 54.0762 3.93535C54.3997 3.97653 54.6997 3.99712 55.0026 3.99712" fill="#010C66"/>
<path d="M55.6675 11.4146C55.0851 10.9852 54.4586 10.6146 53.8145 10.2676H46.5469C47.2704 10.597 47.9557 10.9852 48.6204 11.4146H55.6675Z" fill="#010C66"/>
<path d="M34.4471 2.19412C35.3736 2.19412 36.1177 2.95294 36.1383 3.89412V3.91471C36.1383 4.57059 35.7765 5.08235 35.2324 5.45294C35.2942 5.53529 35.3736 5.59706 35.4324 5.67941C35.5324 5.80294 35.6324 5.90588 35.7354 6.00588C35.8971 6.17059 36.0589 6.33529 36.2383 6.45588L36.3589 6.55882C36.5412 6.68235 36.7207 6.80588 36.9236 6.90588C37.003 6.94706 37.106 6.98824 37.1854 7.02941C37.2648 7.07059 37.3854 7.11176 37.4883 7.13235C37.6883 7.19412 37.9118 7.21471 38.1324 7.23529C38.1912 7.23529 38.2324 7.25588 38.2942 7.25588V8.32059C38.2942 9.16177 39.1207 9.61176 40.0854 9.61176C41.0501 9.61176 41.8765 9.16177 41.8765 8.32059V7.23529C41.9383 7.23529 41.9765 7.23529 42.0383 7.21471C42.2589 7.19412 42.4618 7.15294 42.6824 7.11176C42.7824 7.09118 42.8824 7.05 42.9854 7.00882C43.0854 6.96765 43.1677 6.92647 43.2471 6.88529C43.4471 6.78235 43.6295 6.67941 43.8118 6.53824L43.9324 6.43529C44.1118 6.29118 44.2736 6.14706 44.4354 5.98529C44.5354 5.88235 44.6354 5.77941 44.7383 5.65588C44.8001 5.57353 44.8795 5.51176 44.9383 5.42941C44.4148 5.06176 44.0324 4.54706 44.0324 3.89118C44.0118 2.94706 44.756 2.17059 45.6824 2.17059H45.703C46.1471 2.19118 46.5883 2.35588 46.9501 2.62059C47.0912 2.41471 47.2118 2.21176 47.353 2.00588C46.8707 1.65882 46.306 1.47353 45.7236 1.45294C44.3942 1.43235 43.3089 2.51765 43.2883 3.85V3.89118C43.3089 4.50588 43.5501 5.1 43.953 5.55C43.5089 6 42.8442 6.61471 41.8383 6.59412V1.29118C41.8383 0.45 41.0118 0 40.0442 0C39.0765 0 38.253 0.45 38.253 1.29118V6.6C37.2471 6.62059 36.5824 6.00588 36.1383 5.55588C36.5618 5.10588 36.7824 4.51177 36.803 3.89706C36.803 2.54412 35.7354 1.45882 34.406 1.45882H34.3648C33.7795 1.47941 33.2177 1.66471 32.7324 2.01176C32.8736 2.21765 32.9942 2.42059 33.1354 2.62647C33.5795 2.37941 34.0001 2.21765 34.4442 2.19706M40.0854 0.573529C40.4677 0.552941 40.8295 0.655882 41.1324 0.9L40.0854 1.92353L39.0383 0.9C39.3383 0.652941 39.703 0.552941 40.0854 0.573529ZM38.8383 1.35294L40.0854 2.56176L41.3324 1.33235V2.21471L40.0854 3.44412L38.8383 2.21471V1.35294ZM38.8383 2.87059L40.0854 4.1L41.3324 2.87059V3.75294L40.0854 4.98235L38.8383 3.75294V2.87059ZM38.8383 4.38529L40.0854 5.61471L41.3324 4.38529V5.26765L40.0854 6.49706L38.8383 5.26765V4.38529ZM38.8383 5.90294L40.0854 7.13235L41.3324 5.90294V6.78529L40.0854 8.01471L38.8383 6.78529V5.90294ZM38.8383 7.42059L40.0854 8.65L41.3324 7.42059V8.28235C41.3324 8.77353 40.8295 9.06176 40.0854 9.06176C39.3412 9.06176 38.8383 8.75294 38.8383 8.28235V7.42059Z" fill="#010C66"/>
<path d="M47.3525 2.97042C47.9173 3.29689 48.5614 3.441 49.2055 3.42042C49.9908 3.42042 50.9761 3.19395 50.9761 2.84689C50.9761 2.68218 50.6937 2.72336 50.1496 2.74395C49.3437 2.80571 48.5378 2.641 47.8143 2.29395C47.6526 2.47924 47.5114 2.72336 47.3496 2.97042H47.3525Z" fill="#010C66"/>
<path d="M34.4881 5.30896C34.3263 5.10307 34.1646 4.87954 33.944 4.59131C33.341 4.97954 32.7969 5.20601 31.6087 5.16484C31.3881 5.16484 31.2852 5.16484 31.2852 5.28837C31.2852 5.47366 31.9499 5.88248 32.7763 5.88248C33.3793 5.8619 33.9852 5.6766 34.4881 5.30896Z" fill="#010C66"/>
<path d="M44.7354 3.87334C44.7148 3.89393 44.7148 3.91452 44.7148 3.93511C44.7354 4.36452 44.956 4.73511 45.3178 4.93805C45.4384 4.75275 45.6001 4.5704 45.7619 4.34393C45.4384 4.15864 45.2972 3.87334 45.5001 3.64687C45.7001 3.4204 45.9443 3.50275 46.2237 3.72922C46.3443 3.54393 46.4854 3.36158 46.6266 3.15569C46.406 2.9704 46.1237 2.84687 45.8207 2.84687C45.2354 2.82628 44.7531 3.27628 44.7325 3.8704" fill="#010C66"/>
<path d="M54.1796 7.80891C53.3943 7.93244 52.5884 7.87067 51.8237 7.60303C51.6031 8.01185 51.2207 8.23832 50.7148 8.38244C51.259 8.58832 51.8413 8.69126 52.4266 8.69126C53.6737 8.69126 54.5001 8.24126 54.5001 7.95303C54.5001 7.85009 54.4001 7.76773 54.1766 7.80891" fill="#010C66"/>
<path d="M48.562 5.14433C47.3738 5.20609 46.8297 4.95904 46.2267 4.5708C46.0267 4.85904 45.8444 5.10315 45.6826 5.28845C46.1856 5.65904 46.7709 5.84139 47.3944 5.86198C48.2209 5.86198 48.8856 5.45315 48.8856 5.26786C48.8856 5.14433 48.7856 5.14433 48.562 5.14433Z" fill="#010C66"/>
<path d="M49.2264 8.13517C50.5147 8.13517 51.2 7.62341 51.2 7.39694C51.2 7.294 51.1382 7.27341 51.0382 7.27341C50.8764 7.27341 50.3147 7.33517 49.9294 7.33517C49.3058 7.33517 48.6823 7.19106 48.1176 6.90576C47.7764 7.294 47.4941 7.37635 47.0117 7.4587C47.6764 7.88811 48.4411 8.13517 49.2264 8.13517Z" fill="#010C66"/>
<path d="M52.2856 5.75886C51.7415 5.8618 51.1973 5.90298 50.6562 5.92357C50.1738 5.92357 49.6885 5.82063 49.2473 5.61475C49.0473 5.92357 48.562 6.1471 48.1797 6.25004C48.6826 6.63828 49.3679 6.78239 50.112 6.78239C51.6032 6.78239 52.4062 6.1471 52.4062 5.85886C52.4062 5.7971 52.365 5.75592 52.2856 5.75592" fill="#010C66"/>
<path d="M42.8027 7.64419C43.1263 8.30007 43.6086 8.75007 44.2939 8.83243C44.6763 8.8736 45.0174 8.7089 45.0174 8.54419C45.0174 8.44125 44.7145 8.40007 44.5351 8.31772C44.091 8.11184 43.7292 7.78537 43.5086 7.35596C43.288 7.47949 43.0469 7.56184 42.8027 7.64419Z" fill="#010C66"/>
<path d="M52.8093 15.4528H59.8769C59.574 15.044 59.2328 14.6528 58.8887 14.2852H51.8828C52.2063 14.6528 52.5063 15.044 52.8093 15.4528Z" fill="#010C66"/>
<path d="M44.515 6.68213C44.3326 6.84683 44.1326 7.0086 43.9326 7.13213C44.2356 7.60272 44.6767 7.93213 45.2003 8.05566C45.865 8.17919 46.3267 7.8086 46.3267 7.62625C46.3267 7.52331 46.1267 7.52331 45.965 7.50272C45.3826 7.44095 44.8562 7.13507 44.515 6.68213Z" fill="#010C66"/>
<path d="M56.2321 6.25015C56.2321 6.1678 56.1733 6.08545 56.091 6.08545H56.0704C55.688 6.08545 55.3469 6.37368 54.1586 6.37368C53.7351 6.3531 53.3321 6.29133 52.9292 6.1678C52.7674 6.6178 52.2851 6.90604 51.8027 7.05015C52.3674 7.21486 52.9498 7.29721 53.5351 7.29721C55.1469 7.29721 56.2321 6.64133 56.2321 6.2531" fill="#010C66"/>
<path d="M49.5675 3.8735C48.4998 3.93527 47.8557 3.81174 47.0498 3.38232C46.8881 3.62938 46.7086 3.8735 46.5469 4.09997C47.091 4.47056 47.7351 4.6735 48.3792 4.65291C49.2057 4.65291 49.991 4.30585 49.991 4.03821C50.0322 3.91468 49.8498 3.85291 49.5675 3.8735Z" fill="#010C66"/>
<path d="M27.2414 6.17073C26.8385 6.29426 26.4149 6.35603 26.012 6.37661C24.8032 6.37661 24.462 6.08838 24.1002 6.08838C24.0208 6.08838 23.9385 6.15014 23.9385 6.2325V6.25308C23.9385 6.64132 25.0267 7.2972 26.6355 7.2972C27.2179 7.2972 27.8032 7.21485 28.3679 7.05014C27.8855 6.90603 27.4002 6.62073 27.2414 6.16779" fill="#010C66"/>
<path d="M46.4672 7.02922C47.2319 7.02922 47.7761 6.68216 47.7761 6.49686C47.7761 6.37333 47.6555 6.37333 47.4731 6.39392C46.7084 6.45569 45.9643 6.2498 45.3378 5.7998L45.279 5.88216C45.1378 6.04686 44.9966 6.21157 44.8555 6.35275C45.3378 6.76157 45.8408 7.02922 46.4672 7.02922Z" fill="#010C66"/>
<path d="M45.8232 8.46456C46.5291 8.91456 47.3321 9.18221 48.1585 9.2028C49.0438 9.22339 49.5674 8.91456 49.5674 8.71162C49.5674 8.58809 49.2262 8.64986 48.7232 8.60868C48.0174 8.5675 47.335 8.32339 46.7497 7.91162C46.5497 8.24103 46.2056 8.44397 45.8232 8.46456Z" fill="#010C66"/>
<path d="M53.3323 4.28248C52.7676 4.40601 52.2058 4.48837 51.6205 4.50895C51.2176 4.50895 50.8352 4.44719 50.4529 4.34425C50.2911 4.63248 49.8882 4.89719 49.2646 5.02072C49.7676 5.26778 50.3323 5.38837 50.897 5.38837C52.2647 5.38837 53.5558 4.93837 53.5558 4.44425C53.5558 4.34131 53.5146 4.25895 53.3352 4.27954" fill="#010C66"/>
<path d="M57.4995 4.14121C56.4525 4.59121 55.3054 4.75592 54.1584 4.6118C54.0966 5.02062 53.5731 5.43239 52.8701 5.57356C53.3731 5.65592 53.8554 5.69709 54.3613 5.69709C56.2142 5.69709 57.7231 4.89709 57.7231 4.28239C57.7231 4.17945 57.6819 4.09709 57.5025 4.13827" fill="#010C66"/>
<path d="M20.7974 35.7235H27.9651C27.7033 35.3352 27.4416 34.9235 27.221 34.5146H20.1533C20.3533 34.9235 20.5563 35.3352 20.7974 35.7235Z" fill="#010C66"/>
<path d="M23.5146 39.1851C23.9588 39.6145 24.3999 40.0262 24.8823 40.3939H32.4529C31.9088 40.0262 31.4264 39.6145 30.9441 39.1851H23.5146Z" fill="#010C66"/>
<path d="M45.7239 44.7414C46.8504 44.5149 47.9592 44.209 49.0475 43.8179H31.1475C32.2357 44.2061 33.3416 44.5149 34.471 44.7414C38.1945 45.4591 42.0004 45.4591 45.7269 44.7414" fill="#010C66"/>
<path d="M34.2474 41.5029H26.415C27.1003 41.9529 27.8033 42.3441 28.5297 42.7118H37.4474C36.3209 42.4647 35.2533 42.0559 34.2474 41.5029Z" fill="#010C66"/>
<path d="M28.7911 36.8501H21.5234C21.8264 37.2589 22.1264 37.6707 22.4705 38.0589H29.8205C29.4587 37.6707 29.1146 37.2795 28.794 36.8501" fill="#010C66"/>
<path d="M27.7239 8.69126C28.3092 8.69126 28.8916 8.58832 29.4357 8.38244C28.9328 8.23832 28.5504 8.03538 28.3269 7.60303C27.5622 7.87067 26.7769 7.9295 25.971 7.80891C25.7504 7.76773 25.6475 7.85009 25.6475 7.95303C25.668 8.24126 26.4739 8.69126 27.721 8.69126" fill="#010C66"/>
<path d="M28.288 14.2852H21.2822C20.941 14.6528 20.6175 15.044 20.2969 15.4528H27.3645C27.6675 15.044 27.9675 14.6528 28.291 14.2852" fill="#010C66"/>
<path d="M18.3147 32.4031V17.6061C18.2941 17.1149 18.1735 16.9502 17.65 16.9502H15.5559C15.0529 16.9502 14.8912 17.1149 14.8912 17.6061V26.009L6.86471 17.3384C6.60294 17.0502 6.46176 16.9502 5.97941 16.9502H0.664706C0.202941 16.9502 0 17.1767 0 17.6061V32.4031C0 32.8325 0.220588 33.059 0.664706 33.059H2.77941C3.24118 33.059 3.42353 32.8325 3.42353 32.4031V22.8531L12.2971 32.5678C12.5794 32.8973 12.7206 33.059 13.3441 33.059H17.6735C18.1765 33.059 18.3176 32.8943 18.3176 32.4031" fill="#010C66"/>
<path d="M42.7441 42.7323H51.6647C52.3883 42.3646 53.0941 41.9734 53.7794 41.5234H45.9471C44.9206 42.0558 43.853 42.4646 42.7471 42.7323" fill="#010C66"/>
<path d="M60.0178 34.5146H52.9502C52.7296 34.9235 52.4678 35.3352 52.2061 35.7235H59.3737C59.6149 35.3352 59.8178 34.9235 60.0178 34.5146Z" fill="#010C66"/>
<path d="M25.1473 3.99691C25.4502 3.99691 25.7708 3.97632 26.0738 3.95573C25.3708 3.72926 25.0885 3.46456 25.0267 3.01456C22.912 3.01456 22.0885 2.33809 21.6238 2.25573C21.5443 2.23515 21.462 2.27632 21.4414 2.35868V2.42044C21.4414 2.97338 23.1326 3.99985 25.1473 3.99985" fill="#010C66"/>
<path d="M74.9564 17.462C74.8769 17.1325 74.574 16.909 74.2328 16.9502H67.8505C67.4475 16.9502 67.1858 17.0737 67.0652 17.462L61.7299 32.4855C61.6093 32.8737 61.7093 33.059 62.0917 33.059H64.4681C64.8711 33.059 65.0328 33.0178 65.1916 32.5678L66.1975 29.7178H72.5005L73.4475 32.259C73.7093 32.9561 73.8916 33.059 74.4534 33.059H79.9299C80.5122 33.059 80.6534 32.8737 80.4328 32.2384L74.9564 17.462ZM67.2269 26.8884L69.3211 20.9855L71.4946 26.8884H67.2269Z" fill="#010C66"/>
<path d="M52.7504 17.6267L49.5887 25.4561L46.3269 17.6267C46.1269 17.1355 45.9445 16.9502 45.321 16.9502H39.0592C38.5563 16.9502 38.3945 17.1149 38.3945 17.6061V32.4031C38.3945 32.8943 38.5563 33.059 39.0592 33.059H41.1534C41.6563 33.059 41.8181 32.8943 41.8181 32.4031V22.8531L45.8445 32.3825C46.1269 32.9767 46.2269 33.059 46.671 33.059H49.4886C50.071 33.059 50.2122 32.9355 50.4357 32.4237L54.2622 22.8943V32.4237C54.2622 32.9149 54.4239 33.0796 54.9269 33.0796H60.3828C60.8857 33.0796 60.9857 32.9149 60.9857 32.4237V17.6061C60.9857 17.1149 60.8445 16.9502 60.3416 16.9502H53.6769C53.0739 16.9502 52.9534 17.1767 52.7504 17.6267Z" fill="#010C66"/>
<path d="M50.3525 38.0589H57.7025C58.0437 37.6707 58.3467 37.2589 58.6496 36.8501H51.382C51.0584 37.2795 50.7172 37.6707 50.3555 38.0589" fill="#010C66"/>
<path d="M49.2471 39.1851C48.7648 39.6145 48.2589 40.0262 47.7383 40.3939H55.3089C55.7912 40.0056 56.2353 39.6145 56.6765 39.1851H49.2471Z" fill="#010C66"/>
<path d="M19.9733 33.059H25.4086C25.8704 33.0384 26.0321 32.8737 26.0321 32.4031V25.3326L30.4615 32.4855C30.7645 32.9561 30.9057 33.059 31.4086 33.059H37.0851C37.5674 33.059 37.688 32.6884 37.4263 32.259L33.238 25.6179C35.5115 24.9826 37.2645 23.8149 37.2645 21.109C37.2645 18.5679 35.4939 16.9473 32.9557 16.9473H19.9704C19.4674 16.9473 19.3057 17.112 19.3057 17.6031V32.4002C19.3057 32.8914 19.4674 33.0561 19.9704 33.0561M26.0321 18.9384H28.1468C29.6557 18.9384 30.6439 19.7796 30.6439 21.5826C30.6439 23.3855 29.6586 24.1855 28.1468 24.1855H26.0321V18.9384Z" fill="#010C66"/>
<path d="M30.5828 3.8735C30.3004 3.85291 30.1387 3.91468 30.1387 4.03821C30.1387 4.30585 30.9446 4.65291 31.7504 4.65291C32.4151 4.6735 33.0593 4.48821 33.5828 4.09997C33.421 3.8735 33.2593 3.62938 33.0798 3.38232C32.3151 3.81174 31.671 3.93527 30.5828 3.8735Z" fill="#010C66"/>
<path d="M29.6967 4.34424C29.3143 4.44718 28.932 4.50894 28.529 4.50894C27.9437 4.48836 27.382 4.406 26.8173 4.28247C26.6349 4.26188 26.5967 4.34424 26.5967 4.44718C26.5967 4.93836 27.8849 5.38836 29.2555 5.38836C29.8202 5.38836 30.3643 5.26483 30.8849 5.02071C30.2614 4.89718 29.8584 4.63247 29.6967 4.34424Z" fill="#010C66"/>
<path d="M34.4292 2.8501H34.3498C34.0469 2.87069 33.7645 2.97363 33.5439 3.15892C33.6851 3.3648 33.8057 3.54716 33.9469 3.73245C34.2086 3.50598 34.491 3.42363 34.6704 3.6501C34.8528 3.87657 34.7116 4.16186 34.4086 4.34716C34.5704 4.57363 34.7116 4.77657 34.8528 4.94127C35.2145 4.73539 35.4381 4.34716 35.4557 3.93539C35.4763 3.34127 35.0116 2.8501 34.4292 2.8501Z" fill="#010C66"/>
<path d="M35.3357 6.33224C35.1945 6.18812 35.0533 6.02341 34.9122 5.86165L34.8504 5.7793C34.2269 6.2293 33.4827 6.45577 32.7151 6.37341C32.5327 6.35283 32.3916 6.35283 32.4122 6.47636C32.4122 6.68224 32.9563 7.00871 33.721 7.00871C34.3239 7.0293 34.8269 6.76165 35.3327 6.33224" fill="#010C66"/>
<path d="M28.3086 3.95609C28.8116 3.95609 29.3145 3.87374 29.7792 3.70903C29.0557 3.54432 28.8116 3.25903 28.7116 3.01197C27.5233 3.27962 26.3969 2.95021 25.9322 2.82668C25.8116 2.7855 25.5498 2.70315 25.5498 2.88844C25.5498 3.50315 26.8586 3.95315 28.3086 3.95315" fill="#010C66"/>
<path d="M33.1384 7.46163C32.6561 7.37928 32.3737 7.29693 32.0296 6.90869C31.4649 7.19693 30.8414 7.3381 30.2179 7.3381C29.8355 7.35869 29.2708 7.27634 29.109 7.27634C29.009 7.27634 28.9473 7.29693 28.9473 7.39987C28.9473 7.62634 29.612 8.1381 30.9208 8.1381C31.7061 8.1381 32.4708 7.89104 33.1355 7.46163" fill="#010C66"/>
<path d="M26.012 4.61179C24.8855 4.75591 23.7178 4.5912 22.6708 4.1412C22.4884 4.10002 22.4502 4.18238 22.4502 4.28532C22.4502 4.90002 23.959 5.70002 25.7914 5.70002C26.2943 5.70002 26.7973 5.65885 27.2825 5.57649C26.5973 5.41179 26.0737 5.02355 26.0149 4.61473" fill="#010C66"/>
<path d="M35.8767 8.81192C36.562 8.72957 37.0238 8.27957 37.3679 7.62368C37.1267 7.56192 36.8855 7.45898 36.662 7.33545C36.4414 7.76486 36.0767 8.09427 35.6355 8.27663C35.4532 8.37957 35.1532 8.42074 35.1532 8.5031C35.1326 8.68839 35.4944 8.8531 35.8767 8.81192Z" fill="#010C66"/>
<path d="M30.9649 3.40292C31.609 3.44409 32.2532 3.27939 32.8179 2.95292C32.6561 2.72645 32.5149 2.48233 32.3561 2.25586C31.6326 2.62351 30.8267 2.78821 30.0208 2.70586C29.4767 2.68527 29.1943 2.66468 29.1943 2.8088C29.1943 3.17939 30.1796 3.40292 30.9649 3.40292Z" fill="#010C66"/>
<path d="M34.9526 8.05566C35.4762 7.91154 35.9203 7.58507 36.2203 7.13213C36.0203 6.98801 35.8173 6.84389 35.6379 6.68213C35.2968 7.15272 34.7526 7.46154 34.1879 7.50272C34.0262 7.52331 33.8262 7.52331 33.8262 7.62625C33.8262 7.81154 34.3085 8.17919 34.9526 8.05566Z" fill="#010C66"/>
<path d="M29.0937 13.4235C29.4966 13.0147 29.9378 12.6235 30.3819 12.2559H23.3966C22.9525 12.6235 22.5319 13.0147 22.1084 13.4235H29.0937Z" fill="#010C66"/>
<path d="M33.4202 7.93213C32.8378 8.34095 32.1526 8.56742 31.4467 8.62919C30.9437 8.67036 30.5996 8.6086 30.5996 8.73213C30.5996 8.93801 31.1231 9.22331 32.029 9.22331C32.8555 9.20272 33.6584 8.93507 34.3643 8.48507C33.9614 8.46448 33.6202 8.2586 33.4173 7.93213" fill="#010C66"/>
<path d="M33.603 10.2471H26.3354C25.6912 10.5941 25.0883 10.9853 24.4824 11.3941H31.5295C32.1942 10.9647 32.8971 10.5735 33.603 10.2471Z" fill="#010C66"/>
<path d="M169.562 42.5763L167.377 36.7939H165.421L168.668 44.8939L167.409 48.1587H169.265L173.653 36.7939H171.797L169.562 42.5763Z" fill="#010C66"/>
<path d="M120.55 23.3736H126.017V28.5766H127.97V16.9766H126.017V21.6677H120.55V16.9766H118.611V28.5766H120.55V23.3736Z" fill="#010C66"/>
<path d="M133.459 20.0913C130.809 20.0913 129.386 22.1472 129.386 24.4001C129.386 26.6531 130.892 28.709 133.545 28.709C135.498 28.709 136.924 27.7825 137.371 26.1737L135.665 25.7443C135.45 26.656 134.671 27.1707 133.577 27.1707C132.25 27.1707 131.324 26.2766 131.159 24.8354H137.536C137.553 24.6854 137.568 24.3384 137.568 24.0913C137.568 22.0531 136.145 20.0972 133.459 20.0972M131.239 23.456C131.503 22.2119 132.315 21.5178 133.459 21.5178C134.786 21.5178 135.53 22.3295 135.645 23.456H131.239Z" fill="#010C66"/>
<path d="M140.782 16.8442H138.977V28.5736H140.782V16.8442Z" fill="#010C66"/>
<path d="M144.291 27.6148C144.806 28.2766 145.782 28.709 146.791 28.709C149.291 28.709 150.815 26.9207 150.815 24.4001C150.815 21.8795 149.356 20.0913 146.888 20.0913C145.729 20.0913 144.753 20.606 144.288 21.2854V20.2237H142.482V31.5884H144.288V27.6119L144.291 27.6148ZM146.594 21.6678C148.053 21.6678 149.012 22.7443 149.012 24.4001C149.012 26.056 148.05 27.1354 146.594 27.1354C145.138 27.1354 144.177 26.0413 144.177 24.4001C144.177 22.759 145.138 21.6678 146.594 21.6678Z" fill="#010C66"/>
<path d="M108.871 35.1028C110.477 35.1028 111.653 36.0469 111.986 37.6057L113.906 37.191C113.491 34.8881 111.553 33.4146 108.871 33.4146C105.906 33.4146 103.174 35.3851 103.174 39.3469C103.174 43.3087 105.874 45.2793 108.871 45.2793C111.471 45.2793 113.327 43.8881 113.889 41.6498L111.95 41.2351C111.586 42.694 110.491 43.5704 108.871 43.5704C106.736 43.5704 105.144 42.0969 105.144 39.3469C105.144 36.5969 106.75 35.1057 108.871 35.1057" fill="#010C66"/>
<path d="M119.297 36.6616C116.779 36.6616 114.991 38.4675 114.991 40.9704C114.991 43.4734 116.779 45.2793 119.297 45.2793C121.815 45.2793 123.603 43.4734 123.603 40.9704C123.603 38.4675 121.797 36.6616 119.297 36.6616ZM119.297 43.7028C117.806 43.7028 116.812 42.5763 116.812 40.9704C116.812 39.3646 117.806 38.2351 119.297 38.2351C120.788 38.2351 121.782 39.3616 121.782 40.9704C121.782 42.5793 120.774 43.7028 119.297 43.7028Z" fill="#010C66"/>
<path d="M134.295 36.6616C132.986 36.6616 131.992 37.4087 131.545 38.3175C131.198 37.241 130.236 36.6616 128.895 36.6616C127.686 36.6616 126.889 37.291 126.442 38.2028V36.794H124.636V45.144H126.442V40.9204C126.442 39.3293 127.153 38.2204 128.398 38.2204C129.456 38.2204 130.039 38.9175 130.039 39.9616V45.1469H131.827V40.9234C131.827 39.3175 132.539 38.2234 133.783 38.2234C134.842 38.2234 135.439 38.9204 135.439 39.9646V45.1499H137.245V39.5175C137.245 37.8263 136.086 36.6675 134.298 36.6675" fill="#010C66"/>
<path d="M143.255 36.6616C142.097 36.6616 141.12 37.1763 140.655 37.8558V36.794H138.85V48.1587H140.655V44.1822C141.17 44.844 142.147 45.2763 143.155 45.2763C145.655 45.2763 147.179 43.4881 147.179 40.9675C147.179 38.4469 145.72 36.6587 143.253 36.6587M142.955 43.7028C141.497 43.7028 140.538 42.6087 140.538 40.9705C140.538 39.3322 141.5 38.2381 142.955 38.2381C144.411 38.2381 145.373 39.3146 145.373 40.9705C145.373 42.6263 144.411 43.7028 142.955 43.7028Z" fill="#010C66"/>
<path d="M151.827 36.6616C150.053 36.6616 148.63 37.7381 148.365 39.3793L149.988 39.6763C150.103 38.6822 150.818 38.0852 151.827 38.0852C152.921 38.0852 153.632 38.7146 153.632 39.7411V39.8558L152.059 40.0205C149.491 40.2852 148.215 41.1646 148.215 42.8028C148.215 44.2263 149.359 45.2705 151.015 45.2705C152.124 45.2705 153.153 44.7058 153.632 43.8616V45.1381H155.406V39.9352C155.406 37.8469 153.947 36.6558 151.83 36.6558M153.632 41.5469C153.615 42.9058 152.788 43.8822 151.38 43.8822C150.535 43.8822 149.988 43.4175 149.988 42.7558C149.988 42.0263 150.682 41.5293 152.041 41.3793L153.632 41.1969V41.544V41.5469Z" fill="#010C66"/>
<path d="M161.37 36.6616C160.144 36.6616 159.185 37.291 158.62 38.1852V36.794H156.814V45.144H158.62V41.4822C158.62 39.4763 159.464 38.2851 160.873 38.2851C161.932 38.2851 162.579 39.0146 162.579 40.0587V45.144H164.385V39.644C164.385 37.8381 163.144 36.6616 161.37 36.6616Z" fill="#010C66"/>
<path d="M107.626 16.9766L103.12 28.5736H105.123L106.15 25.8413H110.92L111.947 28.5736H113.95L109.429 16.9766H107.623H107.626ZM106.782 24.1677L108.538 19.5295L110.294 24.1677H106.782Z" fill="#010C66"/>
<path d="M179.364 36.7939L178.541 38.7234L177.732 36.7939H177.082V39.541H177.623V37.8675L178.335 39.541H178.759L179.464 37.8675V39.541H180V36.7939H179.364Z" fill="#010C66"/>
<path d="M174.594 37.2881H175.403V39.541H175.991V37.2881H176.806V36.7939H174.594V37.2881Z" fill="#010C66"/>
<path d="M92.0968 0H91.5557V57.9588H92.0968V0Z" fill="#010C66"/>
</g>
</g>
<defs>
<clipPath id="clip0_1407_16782">
<rect width="180" height="57.9588" fill="white"/>
</clipPath>
</defs>
</svg>
